<?xml version="1.0" standalone="no"?>
<!DOCTYPE svg PUBLIC "-//W3C//DTD SVG 1.1//EN" "http://www.w3.org/Graphics/SVG/1.1/DTD/svg11.dtd" >
<svg xmlns="http://www.w3.org/2000/svg">
<metadata>
This is a custom SVG webfont generated by Font Squirrel.
Copyright   : c 2000 Nick Curtis All Rights Reserved Generated by Fontographer 352 
</metadata>
<defs>
<font id="webfontgXgJkMBT" horiz-adv-x="1024" >
<font-face units-per-em="2048" ascent="1638" descent="-410" />
<missing-glyph horiz-adv-x="409" />
<glyph unicode=" "  horiz-adv-x="409" />
<glyph unicode="&#x09;" horiz-adv-x="409" />
<glyph unicode="&#xa0;" horiz-adv-x="409" />
<glyph unicode="!" horiz-adv-x="256" d="M12 1329v1v2v1q0 4 1 7t1 8q6 14 17.5 26t25.5 15q20 4 39 12l37 16q8 2 15.5 6t15.5 7q6 4 12 4h12q23 0 39.5 -16.5t16.5 -41.5v-2l-56 -1036q0 -20 -17 -31.5t-40 -13.5q-20 0 -37.5 11t-19.5 32zM31 76q0 41 28.5 68.5t67.5 27.5q41 0 68.5 -27.5t27.5 -68.5 q0 -39 -27.5 -66.5t-68.5 -27.5q-39 0 -67.5 27.5t-28.5 66.5z" />
<glyph unicode="&#x22;" horiz-adv-x="403" d="M10 1372v12v4v3q2 31 23.5 56.5t70.5 25.5q47 0 70 -26t23 -56v-3v-4v-12q0 -6 -2 -12l-45 -184q-2 -14 -15.5 -23.5t-30.5 -9.5q-18 0 -30.5 9t-16.5 24l-45 184q-2 6 -2 12zM215 1372v12v4v3q2 31 23.5 56.5t70.5 25.5q47 0 69.5 -26t22.5 -56v-3v-4v-12q0 -6 -2 -12 l-45 -184q-2 -14 -15 -23.5t-30 -9.5q-18 0 -30.5 9t-16.5 24l-45 184q-2 6 -2 12z" />
<glyph unicode="#" />
<glyph unicode="$" horiz-adv-x="1118" d="M51 293q0 61 25.5 88t58.5 29q33 0 59.5 -24t26.5 -83q0 -82 62.5 -129t138.5 -65q27 -6 53.5 -9.5t50.5 -3.5h3h1v467l-237 99q-92 41 -152.5 129t-60.5 188q0 137 103.5 223t226.5 119l51 11t49 7h5q3 0 5 2h5h5v95q0 33 18.5 48t39.5 15q23 0 41 -15.5t18 -47.5v-97 q12 -2 24.5 -3t26.5 -5q74 -12 147 -44t128 -85q2 0 3 -2l1 -2l4 -8l4 -8l4 -13q2 -6 2 -8q0 -12 1 -24.5t1 -24.5t1 -24.5t1 -24.5t-1 -24.5t-3 -24.5q0 -27 -17.5 -41.5t-39.5 -14.5q-20 0 -38.5 15.5t-18.5 46.5v31q-8 53 -52.5 90t-97.5 57q-20 8 -40.5 13.5t-39.5 9.5 v-435q18 -6 36.5 -13t37.5 -15q18 -6 36 -15l36 -16q109 -49 191.5 -129t82.5 -227q0 -158 -116.5 -257.5t-256.5 -129.5l-23 -4l-24 -5v-200q0 -29 -18.5 -44.5t-40.5 -15.5q-20 0 -39 15.5t-19 46.5v188q-35 2 -74.5 7t-78.5 14q-123 25 -224.5 98.5t-101.5 208.5z M281 1036q0 -55 38.5 -94t83.5 -59q2 0 3.5 -1t3.5 -1l120 -47v391h-1h-3h-3h-1q-18 -2 -38.5 -7.5l-41.5 -11.5q-59 -20 -110 -62t-51 -108zM647 113q12 4 25.5 9t25.5 11q57 27 104.5 74t47.5 110q0 53 -39 94.5t-84 65.5q-10 6 -20.5 11.5t-20.5 9.5l-39 16v-401z" />
<glyph unicode="%" />
<glyph unicode="&#x26;" horiz-adv-x="1650" d="M76 309q0 127 87 232.5t195 165.5l45 24l46 25q-6 10 -13.5 20t-13.5 21q-35 55 -66.5 115.5t-40.5 119.5q0 10 -1 19.5t-1 17.5q0 43 18.5 85t61.5 81q37 31 80 48t88 22q6 2 12 2h13q53 0 103 -18.5t89 -53.5q43 -39 63.5 -87t20.5 -101v-6v-7q-4 -84 -52 -161.5 t-124 -118.5q-2 0 41 -58l94 -123l87 -111l48 -61q16 18 32 38l30 38q70 92 120 178t70 148h-147q-29 0 -44.5 18.5t-15.5 38.5v3v3q2 20 17.5 37t42.5 17h444q29 0 43.5 -16.5t16.5 -37.5v-3v-3q0 -20 -14.5 -38.5t-45.5 -18.5h-178q-18 -68 -67.5 -161t-118.5 -191 q-25 -37 -52 -72l-57 -70l12 -16q6 -8 15 -17q43 -53 94 -99t129 -46q8 0 17.5 1t19.5 1q39 6 76 26.5t59 53.5q10 16 22.5 22.5t24.5 6.5q29 -2 52.5 -28t21.5 -56q0 -8 -2 -17.5t-8 -17.5q-53 -80 -139.5 -118t-180.5 -38q-49 0 -97 11.5t-91 31.5t-73 50t-56 65l-17 21 l-16 22l-22 -21l-23 -20q-72 -59 -161 -109.5t-183 -50.5q-14 0 -28.5 1t-28.5 1q-123 12 -229.5 74.5t-135.5 192.5q-4 18 -6 36.5t-2 36.5zM283 388q0 -7 2 -13q10 -102 85.5 -188.5t182.5 -84.5q10 0 21.5 1t23.5 3q6 0 11 2.5t12 4.5q14 4 29 12l32 16q23 14 43 31 l41 33l31 27l26 26l-31 40l-32 40q-4 4 -7 9t-8 11l-117 149l-114 152l-61 -33l-62 -34q-57 -33 -82.5 -84t-25.5 -107v-13zM494 1090q0 -29 35.5 -93.5t91.5 -146.5q59 31 91.5 84t32.5 121q0 57 -44 95t-95 40h-3h-3h-5h-5q-37 -4 -66.5 -31.5t-29.5 -68.5z" />
<glyph unicode="'" horiz-adv-x="206" d="M10 1372v12v4v3q2 31 23.5 56.5t70.5 25.5q47 0 70 -26t23 -56v-3v-4v-12q0 -6 -2 -12l-45 -184q-2 -14 -15.5 -23.5t-30.5 -9.5q-18 0 -30.5 9t-16.5 24l-45 184q-2 6 -2 12z" />
<glyph unicode="(" horiz-adv-x="755" d="M35 379v16v17v5v7q2 301 144.5 577.5t420.5 417.5q16 8 28.5 11.5t24.5 3.5q20 0 36 -9.5t24 -23.5q4 -8 6 -15.5t2 -17.5v-5v-7q-4 -14 -11.5 -27.5t-23.5 -21.5q-160 -96 -244 -266.5t-112 -356.5q-12 -70 -16.5 -139.5t-4.5 -134.5q0 -61 5 -127t16 -133 q29 -188 112.5 -362.5t243.5 -272.5q16 -10 25.5 -26.5t9.5 -35.5q0 -10 -2 -17t-6 -16v-2q-8 -12 -22.5 -21t-37.5 -9q-10 0 -23.5 3t-29.5 11q-274 139 -415.5 409.5t-149.5 567.5z" />
<glyph unicode=")" horiz-adv-x="755" d="M33 -545q2 16 10 32.5t25 27.5q160 98 243.5 272t112.5 363q10 68 15 133t5 127q0 66 -4 135t-16 139q-29 186 -113 356t-243 267q-18 10 -26.5 27.5t-8.5 35.5q0 8 2 15.5t6 15.5q10 14 25.5 23.5t35.5 9.5q10 0 23.5 -3.5t28.5 -11.5q279 -141 421 -417.5t144 -577.5 v-7v-5v-17v-16q-8 -297 -149.5 -567.5t-415.5 -409.5q-14 -8 -28.5 -11t-27.5 -3q-20 0 -34.5 9t-22.5 23v-2q-2 10 -5 18.5t-3 18.5z" />
<glyph unicode="*" horiz-adv-x="466" d="M20 1217q0 23 15.5 37t32.5 20q4 0 6 1t4 1l94 6l-74 61q-8 8 -15 20.5t-7 27.5q0 4 1 8t1 8q4 8 10 17.5t16 15.5q10 8 20.5 11t18.5 3q18 0 32.5 -11t21.5 -28l34 -88l37 88q6 16 20.5 27.5t35.5 11.5q10 0 19 -3t17 -11q10 -6 16.5 -15.5t10.5 -17.5q0 -4 1 -8t1 -8 q0 -14 -6 -25.5t-16 -22.5l-74 -59l96 -8h3h3q18 -4 33.5 -18.5t15.5 -38.5q0 -4 -1 -10.5t-3 -12.5q-8 -25 -23.5 -35t-31.5 -8q-8 0 -16.5 2t-16.5 6l-82 49l25 -92v-4q0 -2 2 -4v-4v-4q-2 -20 -15.5 -39t-48.5 -19q-33 0 -47 18.5t-14 39.5v4v4q0 2 1 4t1 4l23 92 l-82 -51q-8 -4 -16.5 -7t-18.5 -1q-16 0 -31.5 10t-23.5 33q-2 6 -3.5 12.5t-1.5 10.5z" />
<glyph unicode="+" />
<glyph unicode="," horiz-adv-x="247" d="M25 78q0 10 2 19t6 18q10 29 35.5 43t52.5 14h9q5 0 11 -2q4 0 9.5 -2t9.5 -4q33 -18 46 -45t13 -58q0 -8 -1 -16t-3 -16q-4 -16 -11 -32.5t-18 -31.5v-2q-23 -33 -57.5 -56.5t-71.5 -21.5h-10q-6 0 -12 2v9q27 20 38 45.5t-7 52.5q-2 4 -6 7l-7 7q-14 14 -21 32t-7 38z " />
<glyph unicode="-" horiz-adv-x="440" d="M20 659q0 23 15.5 40.5t46.5 17.5h276q31 0 46.5 -17.5t15.5 -40.5q0 -20 -15.5 -38.5t-46.5 -18.5h-276q-31 0 -46.5 18.5t-15.5 38.5z" />
<glyph unicode="." horiz-adv-x="256" d="M31 76q0 41 28.5 68.5t67.5 27.5q41 0 68.5 -27.5t27.5 -68.5q0 -39 -27.5 -66.5t-68.5 -27.5q-39 0 -67.5 27.5t-28.5 66.5z" />
<glyph unicode="/" horiz-adv-x="585" d="M16 -514l455 1933h115l-455 -1933h-115z" />
<glyph unicode="0" horiz-adv-x="1122" d="M49 477q0 49 9.5 98.5t25.5 94.5q59 160 197.5 262t304.5 102q20 0 41 -2l41 -4l38.5 -9t41.5 -13q158 -57 240.5 -196.5t82.5 -297.5q0 -16 -1 -31.5t-3 -31.5q-2 -33 -9 -65t-20 -62q-57 -160 -196.5 -261.5t-304.5 -101.5q-20 0 -41 2t-39 4q-20 4 -41 9.5t-41 13.5 q-156 55 -241 193t-85 296zM270 496q0 -29 4.5 -62t12.5 -65q27 -104 94.5 -190.5t179.5 -86.5q113 0 180.5 86t92.5 191q8 33 12 65.5t4 61t-4 61.5t-12 66q-25 104 -92.5 190t-180.5 86t-180.5 -86t-93.5 -190q-8 -33 -12.5 -65.5t-4.5 -61.5z" />
<glyph unicode="1" horiz-adv-x="927" d="M43 852v3v3q2 18 16.5 33.5t40.5 15.5h5h4q18 -2 36 -2h39q41 0 84 3t86 12q43 8 86 18t86 25q4 2 10 2h9q23 0 40 -16.5t17 -41.5v-792h223q29 0 44.5 -17.5t15.5 -40.5q0 -20 -15.5 -38.5t-44.5 -18.5h-686q-31 0 -46 18.5t-15 38.5q0 23 15.5 40.5t45.5 17.5h238v692 q-49 -8 -98.5 -13.5t-98.5 -5.5q-20 0 -40.5 1.5t-41.5 3.5q-29 2 -42 20.5t-13 38.5z" />
<glyph unicode="2" horiz-adv-x="1077" d="M49 872q0 16 7 31t22 25q61 43 134 69.5t148 32.5q8 0 15.5 1t15.5 1h13h16q164 0 280.5 -79t130.5 -248v-8q0 -3 3 -7v-7v-7q-2 -106 -56.5 -198.5t-130.5 -166.5q-33 -31 -66 -58l-71 -56h356l54 92q8 14 18 20t23 8q2 2 5 2h5q8 0 15 -2t13 -6q12 -8 21.5 -20t9.5 -29 q-2 -8 -4 -15t-6 -18l-182 -313q-10 -14 -23.5 -22.5t-30.5 -8.5q-8 0 -15 2t-13 7q-12 8 -20.5 20t-8.5 29q0 8 3 15l7 17l15 23h-635q-20 2 -33.5 15.5t-17.5 33.5q0 2 -1.5 4t-1.5 4v2v4q0 16 9.5 29.5t23.5 20.5q137 53 236.5 111.5t159.5 123.5q47 53 69.5 112.5 t22.5 123.5v21q0 11 -2 24q-8 70 -48 125t-106 82q-18 8 -39.5 13t-42.5 9q-10 0 -20.5 1t-20.5 1q-41 0 -82 -10t-76 -31q-8 -4 -17 -7t-19 -3q-14 2 -28.5 9t-23.5 20q-6 8 -8 17t-2 19z" />
<glyph unicode="3" horiz-adv-x="964" d="M43 803q0 4 1 8t3 8q2 8 7 17.5t14 15.5q72 55 158.5 88t176.5 39q10 2 23 2h23q23 0 47 -2t47 -6q100 -18 184 -77.5t98 -166.5q0 -4 1 -8t1 -8v-11v-8q0 -106 -67.5 -199.5t-151.5 -152.5q6 -4 13.5 -7t15.5 -5q119 -57 202 -126t83 -198q0 -215 -171 -350t-376 -182 q-53 -10 -106.5 -16.5t-102.5 -6.5h-32q-15 0 -32 2q-27 2 -41 19.5t-12 38.5v4v4q2 20 15.5 37.5t39.5 17.5h4h3q6 0 12 -1t12 -1h10h13q31 0 63.5 3t63.5 9q150 27 272.5 120t120.5 257q-2 94 -71.5 139t-155.5 68q-33 8 -64 14l-59 13q-23 4 -40.5 24.5t-17.5 42.5v2v1v5 v4q4 18 18.5 36t33.5 24q37 10 70.5 22.5t64.5 28.5q68 37 103.5 96.5t35.5 139.5q0 100 -75 155t-169 55h-4h-3q-52 -2 -101 -21t-86 -56l-11.5 -7.5t-11.5 -5.5t-11 -3t-11 -1q-14 0 -27.5 5.5t-24.5 15.5q-8 10 -13 21.5t-5 23.5z" />
<glyph unicode="4" horiz-adv-x="1142" d="M51 123q0 16 6 32.5t15 24.5l788 762q8 8 18.5 12t20.5 4q23 0 41 -16t18 -41v-713h72q31 0 45.5 -23.5t14.5 -52t-14.5 -52t-45.5 -23.5h-72v-465q0 -2 -1 -7t-3 -9q-4 -10 -11 -19.5t-15 -13.5l-1 -1q-1 -1 -3 -1l-119 -56q-6 -2 -12 -2h-13q-23 0 -40 16.5t-17 41.5 v516h-610q-23 0 -38.5 17.5t-19.5 39.5q-2 6 -3 13.5t-1 15.5zM248 188h475v461z" />
<glyph unicode="5" horiz-adv-x="1132" d="M51 -414q0 8 3 15.5t5 13.5q6 14 19.5 22.5t30.5 8.5q8 0 15 -2t15 -6q61 -33 132 -49.5t143 -16.5q68 0 132 15.5t122 45.5q70 45 104.5 119t38.5 154v12v12v21q0 10 -2 20q0 10 -2 19.5l-4 19.5q-27 145 -138.5 202.5t-240.5 57.5q-37 0 -72 -4t-69 -10q-6 -2 -13.5 -3 t-15.5 -1q-16 0 -29.5 10t-11.5 37v2l23 535q0 23 18 39t39 16h312h313l55 96q10 16 23.5 24.5t27.5 8.5q8 0 15.5 -2t13.5 -6q12 -8 21 -21.5t9 -29.5q0 -4 -2 -9.5l-4 -11.5q0 -2 -1 -5t-3 -5l-182 -314q-8 -14 -18.5 -21t-22.5 -9q-2 -2 -5 -2h-5q-8 0 -15.5 2t-15.5 6 q-12 8 -20.5 20.5t-8.5 28.5q0 8 3 16.5t8 16.5l2 6h-225h-224l-12 -277q49 16 102 23.5t109 7.5h8h10q104 -2 202.5 -39t170.5 -112q53 -59 77.5 -127t24.5 -138v-14v-12q-8 -117 -70.5 -225.5t-156.5 -180.5q-86 -66 -189.5 -98.5t-211.5 -32.5q-84 0 -167 19.5t-157 60.5 q-16 10 -24.5 23.5t-8.5 27.5z" />
<glyph unicode="6" d="M47 516q-2 209 76 402.5t229 336.5q102 98 233.5 159t274.5 71h3h3h1h3q29 0 46.5 -15.5t19.5 -33.5v-1v-2v-1v-4v-3q-2 -18 -18.5 -34.5t-49.5 -20.5q-102 -12 -197.5 -68.5t-172.5 -140.5q-53 -57 -97.5 -130t-76.5 -159q49 33 104 48.5t123 15.5q193 0 309.5 -141.5 t116.5 -321.5v-21q0 -11 -2 -22q-14 -180 -149.5 -326.5t-323.5 -148.5q-215 -2 -325.5 154.5t-127.5 345.5q0 14 -1 29.5t-1 31.5zM258 532q0 -37 4 -80.5t12 -91.5q23 -102 79.5 -188t164.5 -88h3h3q94 0 157.5 73.5t86.5 161.5q8 25 11 49.5t3 47.5v8v8q-6 119 -86 218.5 t-209 99.5h-13h-15q-53 -4 -103.5 -21.5t-85.5 -60.5q-4 -35 -7 -69t-5 -67z" />
<glyph unicode="7" horiz-adv-x="1179" d="M53 739q0 8 3 16.5t7 16.5l183 315q8 14 18 20.5t23 8.5q2 2 5 2h5q8 0 15 -2t14 -6q12 -8 21 -20.5t9 -28.5l-4 -15.5t-6 -17.5l-8 -12h731q27 0 42 -19.5t15 -42.5q0 -8 -2 -15t-6 -13l-196 -316l-547 -972l-1 -2q-5 -7 -13.5 -13t-16.5 -8q-6 -4 -11 -5t-9 -1l-64 -2 q-25 2 -41 21.5t-16 41.5v6q0 4 2 7q0 4 2 7t4 7l610 973l68 118h-682l-43 -73q-10 -16 -23.5 -24.5t-29.5 -8.5q-8 0 -15.5 3t-13.5 5q-12 8 -20.5 20.5t-8.5 28.5z" />
<glyph unicode="8" horiz-adv-x="1077" d="M49 340q0 160 99.5 249t220.5 156l28 17l29 16q-94 84 -169 178.5t-75 231.5q0 154 124 229.5t274 77.5h3h3q152 -2 277.5 -78t125.5 -225q0 -129 -88 -223.5t-196 -163.5l3 -3q1 -1 3 -1q119 -86 218 -196.5t101 -270.5q2 -168 -126 -266.5t-283 -122.5l-46 -4 q-23 -2 -45 -2h-24q-12 0 -25 2h-3h-3q-160 16 -293 119.5t-133 279.5zM264 358q0 -37 6 -71.5t21 -67.5q29 -72 89 -121t148 -47q115 2 187.5 88t75.5 189v3v3q0 53 -20.5 102t-63.5 88l-96 86l-95 86l-29 -16q-14 -8 -26 -14l-29 -17l-29 -16q-70 -43 -104.5 -118 t-34.5 -157zM362 1202q0 -18 6.5 -40.5t16.5 -45.5q27 -55 72 -105t94 -91q14 -10 27 -21l24 -20q72 51 121 117.5t49 160.5q0 100 -60.5 148.5t-133.5 54.5h-9h-8h-16q-8 0 -17 -2q-66 -8 -116 -48t-50 -108z" />
<glyph unicode="9" d="M47 416v21q0 11 2 22q14 180 150.5 326.5t322.5 148.5q215 2 325.5 -154.5t127.5 -345.5q0 -14 1 -29.5t1 -31.5q2 -209 -76 -401.5t-229 -336.5q-102 -98 -233.5 -158.5t-274.5 -70.5h-5h-5q-31 0 -47.5 14.5t-18.5 34.5v3v3q0 20 17.5 38t50.5 22q102 12 197.5 68.5 t170.5 140.5q53 57 98.5 128.5t75.5 157.5q-49 -31 -104 -46t-123 -15q-193 0 -308.5 140.5t-115.5 320.5zM242 451q8 -117 87 -215.5t206 -98.5h8h8q57 2 111.5 20.5t91.5 63.5q4 35 7 69t5 66q0 37 -4 81t-12 91q-23 102 -80.5 188.5t-165.5 88.5q-96 2 -160.5 -74 t-89.5 -166q-6 -23 -9 -46t-3 -46v-11v-11z" />
<glyph unicode=":" horiz-adv-x="256" d="M31 76q0 41 28.5 68.5t67.5 27.5q41 0 68.5 -27.5t27.5 -68.5q0 -39 -27.5 -66.5t-68.5 -27.5q-39 0 -67.5 27.5t-28.5 66.5zM31 485q0 41 28.5 69t67.5 28q41 0 68.5 -28t27.5 -69q0 -39 -27.5 -67.5t-68.5 -28.5q-39 0 -67.5 28.5t-28.5 67.5z" />
<glyph unicode=";" horiz-adv-x="256" d="M31 485q0 41 28.5 69t67.5 28q41 0 68.5 -28t27.5 -69q0 -39 -27.5 -67.5t-68.5 -28.5q-39 0 -67.5 28.5t-28.5 67.5zM39 78q0 10 2 19t6 18q10 29 36 43t52 14h9q5 0 12 -2q4 0 9 -2t9 -4q33 -18 46 -45t13 -58q0 -8 -1 -16t-3 -16q-4 -16 -11 -32.5t-17 -31.5v-2 q-23 -33 -57.5 -56.5t-71.5 -21.5h-11q-6 0 -12 2v9q27 20 38 45.5t-7 52.5q-2 4 -5 7l-7 7q-14 14 -21.5 32t-7.5 38z" />
<glyph unicode="&#x3c;" />
<glyph unicode="=" />
<glyph unicode="&#x3e;" />
<glyph unicode="?" horiz-adv-x="827" d="M37 1266q0 14 8 27.5t23 25.5q66 53 145.5 84t161.5 31q158 0 287 -88.5t129 -260.5q0 -84 -48.5 -166.5t-119.5 -160.5q-33 -35 -70 -69l-74 -64l-56 -46l-54 -42l45 -125q2 -2 2 -8v-9v-4v-6q-2 -10 -8.5 -21.5t-14.5 -17.5l-74 -55q-8 -4 -15 -7t-17 -3h-4q-2 0 -4 2 q-14 2 -27.5 12t-20.5 24l-30 84q-2 6 -4 13.5l-4 15.5q0 8 -1.5 15.5t-1.5 13.5q0 41 17.5 75.5t50.5 59.5l95 76q48 39 93 80q51 45 79 107.5t30 127.5v9v8q0 109 -55.5 182.5t-169.5 77.5h-4h-4h-5h-4q-12 0 -23 -1t-24 -1q-35 -4 -68.5 -14.5t-64.5 -26.5 q-10 -6 -20.5 -9.5t-20.5 -3.5q-14 0 -25.5 7.5t-19.5 19.5q-4 8 -7 15.5t-3 15.5zM203 78q0 41 28.5 68.5t67.5 27.5q41 0 68.5 -27.5t27.5 -68.5q0 -39 -27.5 -66.5t-68.5 -27.5q-39 0 -67.5 27.5t-28.5 66.5z" />
<glyph unicode="@" horiz-adv-x="1732" d="M78 664q0 170 73.5 330.5t210.5 279.5q109 94 256.5 152.5t301.5 66.5q14 2 27 2h26q135 0 261 -43t226 -133q98 -90 146.5 -210t48.5 -247v-15v-16q-6 -102 -41 -200.5t-98 -181.5q-59 -78 -141.5 -127.5t-180.5 -49.5q-70 0 -123 38t-76 106q-53 -53 -124.5 -92 t-149.5 -39q-8 0 -17.5 1t-17.5 1q-8 2 -17.5 4t-17.5 4q-90 25 -133 101.5t-47 162.5v8v8v17q0 8 2 16q6 106 56.5 208t127.5 173q53 49 123 84t144 33q10 0 21 -1t24 -3q10 0 21 -3t22 -7q29 -10 54.5 -26.5t43.5 -41.5q6 23 19.5 40t37.5 17h2h1h57h53q25 0 41 -19.5 t16 -41.5v-5q0 -3 -2 -7l-73 -258l-76 -258q-2 -4 -2 -10v-9v-3v-3q2 -27 21.5 -48.5t45.5 -21.5h9q4 0 6 2q47 14 86 46t71 73q53 70 83 153t34 167v15v13q-2 102 -40 198.5t-118 168.5q-82 78 -187 112.5t-216 34.5h-17h-18q-129 -6 -252 -57t-213 -135 q-102 -96 -159.5 -225t-65.5 -265v-17v-19q0 -115 40 -224.5t122 -199.5q84 -88 198.5 -141.5t249.5 -55.5q156 0 303.5 40t274.5 134q4 4 9 7t11 3q4 2 9.5 3t9.5 1q14 0 25.5 -7t19.5 -17q6 -8 9 -17.5t3 -19.5q-2 -12 -7 -24.5t-22 -22.5q-143 -106 -308 -149.5 t-341 -43.5q-172 0 -319.5 61.5t-253.5 168.5q-106 109 -157.5 239t-51.5 267zM717 545q0 -8 2 -17q4 -39 21.5 -72.5t52.5 -31.5q8 0 18 3t23 9q55 29 95 78t60 107l21 58q10 30 18 60q2 14 6 29.5t6 30.5q4 14 5.5 29.5t1.5 29.5q0 41 -14.5 75t-55.5 46q-4 2 -9 2h-10 q-6 0 -11 -1t-11 -3q-16 -6 -33.5 -19.5t-32.5 -27.5l-12 -15.5t-12 -13.5q-43 -49 -75 -115.5t-46 -136.5q-4 -23 -6 -44t-2 -44v-16z" />
<glyph unicode="A" horiz-adv-x="1681" d="M0 49v3v3q0 23 15.5 40.5t45.5 17.5h189l495 1247q0 2 1 3l2 1q4 8 13 15t19 12q4 2 9.5 3t9.5 1h110q4 0 8.5 -1t10.5 -3q12 -4 22.5 -13.5t14.5 -19.5l485 -1245h127q31 0 46 -17.5t15 -40.5v-3v-3q-2 -18 -17 -33.5t-44 -15.5h-553q-29 0 -44 15.5t-17 33.5v3v3 q0 23 15 40.5t46 17.5h135l-158 405h-466l-160 -405h241q31 0 46.5 -17.5t15.5 -40.5v-3v-3q-2 -18 -17.5 -33.5t-44.5 -15.5h-555q-29 0 -44 15.5t-17 33.5zM580 631h378l-188 481z" />
<glyph unicode="B" horiz-adv-x="1523" d="M6 49v3v3q0 23 15.5 40.5t46.5 17.5h165v1169h-133q-31 0 -46 18.5t-15 38.5q0 23 15.5 39.5t45.5 16.5h401h398q27 0 55.5 -4.5t59.5 -12.5q111 -33 205 -116.5t94 -198.5q0 -90 -61.5 -162t-139.5 -113q109 -51 195 -146t86 -220q0 -150 -123 -260.5t-271 -147.5 q-31 -6 -61.5 -10t-58.5 -4h-406h-405q-29 0 -44.5 15.5t-17.5 33.5zM477 113h135h136q164 0 273 67.5t109 241.5q0 127 -99 219t-228 92h-163h-163v-620zM477 844h144h143q129 0 215 44t86 175q0 98 -72.5 149.5t-161.5 63.5q-18 4 -36.5 5t-34.5 1h-283v-438z" />
<glyph unicode="C" horiz-adv-x="1464" d="M0 688q0 311 231.5 528.5t546.5 217.5h16h13q119 -4 234.5 -33t211.5 -101q2 -2 4.5 -5t4.5 -7q2 -2 4 -5t2 -5q4 -6 6 -12t2 -11v-198q0 -29 -17.5 -44.5t-39.5 -15.5q-20 0 -39 15.5t-19 44.5v80q-72 88 -174 137t-217 49h-16q-8 0 -15 -2q-8 0 -16 -1t-16 -1 q-88 -12 -164 -59.5t-135 -118.5q-76 -92 -115 -211t-39 -244q0 -123 39 -240.5t115 -209.5q70 -82 166 -132.5t206 -50.5q20 0 41 1t39 1q106 6 206.5 36t178.5 104q10 10 21.5 14t21.5 4q12 0 22.5 -4t18.5 -12.5t12.5 -18.5t4.5 -20t-5.5 -21.5t-15.5 -21.5 q-96 -92 -220 -127t-255 -41q-18 -2 -36 -2h-36q-315 0 -546.5 216t-231.5 527z" />
<glyph unicode="D" horiz-adv-x="1595" d="M6 49v3v3q0 23 16.5 40.5t47.5 17.5h151v1169h-151q-31 0 -46.5 18.5t-15.5 38.5v2v1q0 22 16.5 37.5t45.5 15.5h641q326 0 559 -177.5t233 -519.5q0 -340 -233.5 -519t-558.5 -179h-641q-29 0 -44.5 15.5t-19.5 33.5zM465 113h242q262 0 397 177t135 408.5t-135 407.5 t-397 176h-242v-1169z" />
<glyph unicode="E" horiz-adv-x="1501" d="M4 57q0 23 15.5 39.5t46.5 16.5h149v1169h-149q-31 0 -46.5 18.5t-15.5 38.5v3v4q2 18 17.5 33.5t44.5 15.5h1167q4 0 7 -1t7 -1q12 -6 24.5 -15.5t16.5 -19.5q0 -2 1 -3t1 -3l62 -252q2 -4 2 -8v-9q0 -20 -10.5 -34.5t-26.5 -20.5q-2 0 -5 -1t-5 -1q-2 -2 -5 -2h-6h-5 q-3 0 -5 2q-12 2 -22.5 9t-18.5 22q-10 16 -23.5 34.5t-29.5 38.5q-39 47 -92 89.5t-109 56.5q-10 4 -21.5 5t-21.5 1h-489v-469h489q10 0 22.5 4t24.5 10q23 12 43.5 33t34.5 43q6 12 11.5 24.5t5.5 22.5q0 35 18 51.5t39 16.5q23 0 40 -17.5t17 -52.5v-436 q0 -33 -17.5 -50.5t-39.5 -19.5q-20 0 -38.5 17.5t-18.5 52.5q0 14 -8.5 36.5t-20.5 47.5q-18 35 -45 65.5t-55 36.5q-4 2 -8 2h-5h-489v-587h403q168 4 285 62t164 218q8 23 23.5 33t31.5 10h9q5 0 7 -2q16 -4 30 -18q12 -12 12 -31q0 -2 -0.5 -6.5t-0.5 -6.5q0 -5 -2 -10 l-82 -319q0 -2 -1 -3t-1 -3q-4 -8 -14 -17.5t-20 -15.5q-6 -2 -10.5 -3t-8.5 -1h-1218q-31 0 -46.5 18.5t-15.5 38.5z" />
<glyph unicode="F" horiz-adv-x="1376" d="M0 49v3v3q0 23 15.5 40.5t47.5 17.5h148v1169h-148q-33 0 -48 18.5t-15 38.5v3v4q2 18 17.5 33.5t45.5 15.5h1168q4 0 7 -1t7 -1q12 -4 23.5 -14.5t15.5 -20.5q2 -2 2 -3v-3l62 -252q0 -2 1 -5t1 -5v-6v-5q0 -18 -9.5 -31.5t-25.5 -19.5q-2 0 -5 -1t-5 -1q-2 -2 -6 -2h-5 h-5q-3 0 -5 2q-12 2 -22.5 9t-18.5 22q-10 16 -23.5 34.5t-29.5 38.5q-39 45 -90 87.5t-107 56.5q-12 4 -24.5 6t-24.5 2h-489v-469h485q10 0 22.5 4t22.5 10q23 12 44.5 33t33.5 43q8 12 12 24.5t4 22.5q2 35 20.5 51.5t39.5 16.5q23 0 40 -17.5t17 -52.5v-436 q0 -33 -17.5 -50.5t-39.5 -19.5q-20 0 -39 17.5t-21 52.5q0 14 -7 36.5t-19 47.5q-18 35 -46 66.5t-57 35.5q-2 2 -5 2h-5h-485v-587h301q31 0 46 -17.5t15 -40.5v-3v-3q-2 -18 -17.5 -33.5t-43.5 -15.5h-693q-31 0 -46 15.5t-17 33.5z" />
<glyph unicode="G" horiz-adv-x="1665" d="M6 688q0 324 253 535t575 211q115 0 224 -28t208 -81q2 -2 4 -3t4 -3q4 -4 7 -10t7 -13q2 -4 4 -10t2 -10v-180q0 -31 -17 -45.5t-40 -14.5q-20 0 -38.5 14.5t-18.5 45.5v55q-70 82 -170.5 124t-208.5 42q-227 0 -365.5 -167t-167.5 -368l-4 -48q-2 -24 -2 -46 q0 -25 2 -49l4 -49q25 -176 134.5 -330t295.5 -194l17.5 -4.5t17.5 -2.5q18 -4 35.5 -5t34.5 -1q86 0 163.5 31t145.5 86v416h-211q-29 0 -44 15t-17 34v3v3q0 23 15 39t46 16h588q31 0 46 -16t15 -39v-3v-3q-2 -18 -17 -33.5t-44 -15.5h-121v-379q2 0 3 1t3 1t3 1t3 1 q4 0 6.5 1t6.5 1q2 2 5 2h5q20 -2 33.5 -13.5t17.5 -27.5q2 -4 3 -9t1 -9q-2 -16 -12 -29.5t-33 -22.5q-39 -12 -77 -26.5l-76 -30.5q-6 -2 -12.5 -5t-12.5 -5q-6 -4 -12 -6t-13 -6v-2q-76 -33 -157.5 -53.5t-165.5 -24.5q-14 -2 -28 -2h-28q-39 0 -78.5 3t-78.5 11 q-272 49 -470 249.5t-198 481.5z" />
<glyph unicode="H" horiz-adv-x="1828" d="M0 49v3v3q0 23 15.5 40.5t45.5 17.5h172v1169h-172q-31 0 -46 18.5t-15 38.5q0 23 15.5 39.5t45.5 16.5h588q31 0 46.5 -16.5t15.5 -39.5q0 -20 -15.5 -38.5t-46.5 -18.5h-172v-545h836v545h-170q-33 0 -48.5 18.5t-15.5 38.5q0 23 15.5 39.5t48.5 16.5h586 q31 0 47 -16.5t16 -39.5q0 -20 -15.5 -38.5t-47.5 -18.5h-173v-1169h173q31 0 47 -17.5t16 -40.5v-3v-3q-2 -18 -17.5 -33.5t-45.5 -15.5h-586q-31 0 -46.5 15.5t-17.5 33.5v3v3q0 23 15.5 40.5t48.5 17.5h170v512h-836v-512h172q31 0 46.5 -17.5t15.5 -40.5v-3v-3 q-2 -18 -17.5 -33.5t-44.5 -15.5h-588q-29 0 -44 15.5t-17 33.5z" />
<glyph unicode="I" horiz-adv-x="782" d="M0 49v3v3q0 23 15.5 40.5t47.5 17.5h173v1169h-173q-33 0 -48 18.5t-15 38.5q0 23 15.5 39.5t47.5 16.5h586q33 0 48.5 -16.5t15.5 -39.5q0 -20 -15.5 -38.5t-48.5 -18.5h-172v-1169h172q33 0 48.5 -17.5t15.5 -40.5v-3v-3q-2 -18 -17.5 -33.5t-46.5 -15.5h-586 q-31 0 -46 15.5t-17 33.5z" />
<glyph unicode="J" horiz-adv-x="1107" d="M0 -315q0 27 18.5 50t51.5 32q6 2 12 3t14 1q33 0 60.5 -20.5t36.5 -53.5q2 -4 3 -9t1 -12q14 -51 43.5 -95t93.5 -44q84 0 129 60.5t55 134.5q0 10 1 20t1 21v1509h-244q-31 0 -46 18.5t-15 38.5q0 23 15.5 39.5t45.5 16.5h728q31 0 46 -16.5t15 -39.5 q0 -20 -15.5 -38.5t-45.5 -18.5h-242v-755v-754q0 -156 -117 -259.5t-272 -103.5q-119 0 -222.5 64.5t-144.5 177.5q-2 4 -3 8t-1 8q-2 4 -2 8v9z" />
<glyph unicode="K" horiz-adv-x="1781" d="M0 49v3v3q0 23 15.5 40.5t45.5 17.5h166v1169h-166q-31 0 -46 18.5t-15 38.5q0 23 15.5 39.5t45.5 16.5h584q31 0 46.5 -16.5t15.5 -39.5q0 -20 -15.5 -38.5t-46.5 -18.5h-174v-616l784 616h-245q-29 0 -44.5 18.5t-15.5 38.5q0 23 15.5 39.5t44.5 16.5h626 q31 0 46.5 -16.5t15.5 -39.5q0 -20 -15.5 -38.5t-46.5 -18.5h-198l-627 -491l105 -106l233 -234l229 -231l107 -107h196q31 0 46.5 -17.5t15.5 -40.5v-3v-3q-2 -18 -17.5 -33.5t-44.5 -15.5h-698q-29 0 -44 15.5t-17 33.5v3v3q0 23 15 40.5t46 17.5h180l-536 530l-156 -121 v-409h174q31 0 46.5 -17.5t15.5 -40.5v-3v-3q-2 -18 -17.5 -33.5t-44.5 -15.5h-584q-29 0 -44 15.5t-17 33.5z" />
<glyph unicode="L" horiz-adv-x="1476" d="M4 57q0 23 15.5 39.5t46.5 16.5h149v1169h-149q-31 0 -46.5 18.5t-15.5 38.5q0 23 15.5 39.5t46.5 16.5h596q31 0 46 -16.5t15 -39.5q0 -20 -15.5 -38.5t-45.5 -18.5h-203v-1169h403q168 4 285 62t164 218q8 23 23.5 33t31.5 10h9q5 0 7 -2q16 -4 30 -18q12 -12 12 -31 q0 -2 -0.5 -6.5t-0.5 -6.5q0 -5 -2 -10l-82 -319q0 -2 -1 -3t-1 -3q-4 -8 -14 -17.5t-20 -15.5q-6 -2 -10.5 -3t-8.5 -1h-1218q-31 0 -46.5 18.5t-15.5 38.5z" />
<glyph unicode="M" horiz-adv-x="2078" d="M4 49v3v3q0 23 15.5 40.5t46.5 17.5h202v1169h-202q-31 0 -46.5 18.5t-15.5 38.5q0 23 15.5 39.5t46.5 16.5h626q31 0 46.5 -16.5t15.5 -39.5q0 -20 -15.5 -38.5t-46.5 -18.5h-74l404 -989l453 989h-162q-31 0 -46.5 18.5t-15.5 38.5q0 23 15.5 39.5t46.5 16.5h637 q31 0 46 -16.5t15 -39.5q0 -20 -15.5 -38.5t-45.5 -18.5h-201v-1169h205q31 0 46 -17.5t15 -40.5v-3v-3q-2 -18 -17.5 -33.5t-43.5 -15.5h-631q-29 0 -44 15.5t-17 33.5v3v3q0 23 15 40.5t46 17.5h182v960l-475 -1038q-6 -10 -28.5 -17.5t-51.5 -7.5h-5h-7q-25 0 -44.5 6.5 t-25.5 18.5l-483 1188v-1110h197q31 0 46 -17.5t15 -40.5v-3v-3q-2 -18 -17.5 -33.5t-43.5 -15.5h-516q-29 0 -44.5 15.5t-17.5 33.5z" />
<glyph unicode="N" horiz-adv-x="1951" d="M0 49v3v3q0 23 14.5 40.5t46.5 17.5h197v1169h-158q-31 0 -46 18.5t-15 38.5q0 23 15.5 39.5t45.5 16.5h664q31 0 46 -16.5t15 -39.5q0 -20 -15 -38.5t-46 -18.5h-166l920 -950v950h-256q-31 0 -46.5 18.5t-15.5 38.5q0 23 15.5 39.5t46.5 16.5h571q31 0 46 -16.5 t15 -39.5q0 -20 -15 -38.5t-46 -18.5h-199v-1227q0 -29 -12 -48t-35 -25q-4 -2 -10 -3.5t-12 -1.5q-18 0 -38 10.5t-42 30.5l-1112 1149v-1054h217q33 0 48 -17.5t15 -40.5v-3v-3q-2 -18 -17 -33.5t-46 -15.5h-529q-31 0 -46 15.5t-15 33.5z" />
<glyph unicode="O" horiz-adv-x="1689" d="M2 709q0 311 236.5 524t552.5 213q317 0 552.5 -213t235.5 -524q0 -313 -235.5 -524.5t-552.5 -211.5q-315 0 -552 211.5t-237 524.5zM252 756q0 -10 2 -23q2 -51 12 -103t29 -100q63 -170 215 -305t342 -135q39 0 78 7t78 22q166 59 243.5 205.5t77.5 308.5v6v4 q0 63 -10 124.5t-31 119.5q-63 170 -215.5 305t-343.5 135q-39 0 -77 -7t-79 -22q-168 -59 -244.5 -207.5t-76.5 -314.5v-20z" />
<glyph unicode="P" horiz-adv-x="1363" d="M-2 1339q0 23 14.5 39.5t46.5 16.5h586h30h30q217 -8 397 -95.5t180 -345.5q0 -217 -158.5 -327.5t-367.5 -110.5h-312v-403h148q31 0 47 -17.5t16 -40.5v-3v-3q-2 -18 -18 -33.5t-45 -15.5h-524q-29 0 -44.5 15.5t-17.5 33.5v3v3q0 23 15.5 40.5t46.5 17.5h133v1169 h-142q-33 0 -47 18.5t-14 38.5zM444 629h197q160 0 270.5 78.5t110.5 246.5q0 139 -108.5 227.5t-239.5 98.5q-8 2 -17 2h-16h-197v-653z" />
<glyph unicode="Q" horiz-adv-x="1699" d="M6 702q0 311 236.5 525.5t552.5 214.5q315 0 551.5 -214t236.5 -525.5t-236.5 -523.5t-551.5 -212q-39 0 -78 3t-78 12l-64 -68q84 -8 163 -31.5t149 -58.5q92 -47 166.5 -113.5t132.5 -148.5q6 -10 9 -21.5t3 -19.5q0 -14 -6 -24.5t-16 -18.5q-8 -6 -17 -9q-5 -2 -10 -2 q-4 0 -8 1q-12 0 -23.5 5t-19.5 15q-45 74 -126 120t-181 68q-45 8 -89.5 13.5t-91.5 5.5q-16 0 -31.5 -1t-31.5 -1q-66 -4 -129.5 -16.5t-122.5 -28.5q-2 0 -4 -1t-4 -1h-4h-4q-14 0 -25.5 8t-20.5 18q-4 8 -6 15.5t-2 15.5q0 10 3 19.5t10 17.5l278 274 q-217 78 -363.5 263t-146.5 425zM256 772q0 -63 11.5 -126.5t31.5 -121.5q63 -170 216 -305q150 -133 337 -133h6q25 0 50.5 3t52.5 9q12 2 25 6l26 9q166 61 242.5 205.5t78.5 306.5v6v4q0 66 -10 127t-33 119q-63 170 -215.5 305t-341.5 135q-39 0 -77 -7t-78 -22 q-166 -59 -243 -203.5t-79 -306.5v-6v-4z" />
<glyph unicode="R" horiz-adv-x="1609" d="M0 49v3v3q0 23 15.5 40.5t43.5 17.5h134v1169h-134q-29 0 -44 18.5t-15 38.5q0 23 15.5 39.5t43.5 16.5h625q35 0 71 -2t72 -7q166 -16 305.5 -98t139.5 -280q0 -135 -103.5 -240.5t-234.5 -136.5q37 -115 94 -213.5t127 -169.5q66 -68 151 -114t181 -46q29 0 43 -17.5 t14 -39.5v-3v-3q-2 -18 -16.5 -33t-40.5 -15q-139 2 -269.5 49.5t-238.5 131.5q-113 86 -199 204.5t-137 258.5h-207v-508h187q31 0 46 -17.5t15 -40.5v-3v-3q-2 -18 -17.5 -33.5t-43.5 -15.5h-564q-27 0 -42 15.5t-17 33.5zM436 733h248q139 0 233.5 65.5t94.5 209.5 q0 113 -90.5 186.5t-196.5 85.5q-10 0 -20.5 1t-20.5 1h-2h-2h-244v-549z" />
<glyph unicode="S" horiz-adv-x="1234" d="M6 334q0 41 25.5 63.5t56.5 24.5h3h3h3h3q31 -2 56.5 -23.5t25.5 -64.5q0 -135 103.5 -196.5t230.5 -61.5h8h8q74 2 142.5 24.5t118.5 59.5q29 23 49 44t32 44q14 23 19.5 45t5.5 43q0 66 -50 121t-134 90l-111 45l-110 45l-110 45l-110 45q-113 47 -172 133t-59 180 q0 8 1 17.5t1 19.5q8 68 49 133.5t115 114.5q82 53 183.5 81t207.5 28q121 0 234.5 -38t195.5 -116q6 -4 10 -12t7 -19v-4v-4v-158q0 -23 -14.5 -36t-31.5 -15h-3h-3h-2h-1q-22 0 -40 14.5t-18 43.5q0 47 -19.5 82.5t-50.5 62.5q-37 31 -86 50.5t-102 27.5q-23 4 -45.5 6 t-42.5 2q-16 0 -31.5 -1t-30.5 -3q-20 -2 -43.5 -7t-48.5 -14q-70 -23 -128 -69.5t-58 -120.5q0 -63 47 -108.5t104 -67.5l218 -85l219 -83q139 -51 217 -158q76 -104 76 -221q0 -88 -41 -168t-130 -145q-78 -57 -181 -89t-220 -32q-29 0 -58.5 2t-58.5 6 q-164 18 -299 105.5t-135 271.5z" />
<glyph unicode="T" horiz-adv-x="1636" d="M4 1130q0 8 3 15.5t7 15.5l228 348q6 12 15 18.5t19 8.5q2 2 7 2h6q10 0 17 -2t16 -6q12 -8 20 -19.5t6 -27.5v-8q0 -4 -2 -9q-2 -4 -3 -8t-5 -8l-37 -55h109h874h5h7q68 4 130.5 44t97.5 93q10 14 23.5 20.5t27.5 6.5h5h5q6 -2 11.5 -3.5t9.5 -5.5q12 -8 19 -19t7 -26 q0 -4 -1 -8t-1 -8l-4 -8l-4 -8l-180 -279q-6 -10 -15.5 -16.5t-17.5 -8.5q-4 -2 -8 -2h-8q-8 0 -16.5 2t-16.5 7q-12 8 -19.5 20t-7.5 27q0 8 3 16t7 16l19 27h-426v-1171h172q31 0 46 -16.5t15 -39.5q0 -20 -15 -37.5t-46 -17.5h-590q-31 0 -45 17.5t-14 37.5q0 23 14 39.5 t45 16.5h174v1171h-282q-14 0 -29.5 -2t-30.5 -6q-66 -16 -125 -59.5t-98 -92.5q-4 -4 -8 -9t-8 -11q-6 -12 -15.5 -18.5t-19.5 -8.5h-5h-8q-8 0 -16 2t-16 6q-12 8 -19.5 20.5t-7.5 26.5z" />
<glyph unicode="U" horiz-adv-x="1622" d="M0 1339q0 23 15.5 39.5t45.5 16.5h570q29 0 44 -16.5t15 -39.5q0 -20 -15.5 -38.5t-43.5 -18.5h-170v-833q0 -150 101.5 -256.5t258.5 -106.5q154 0 257.5 106.5t103.5 256.5v833h-185q-29 0 -44 18.5t-15 38.5q0 23 15.5 39.5t43.5 16.5h508q31 0 45.5 -16.5t14.5 -39.5 q0 -20 -14.5 -38.5t-45.5 -18.5h-207l-2 -840q0 -213 -162.5 -353t-375.5 -140q-215 0 -378 144.5t-163 355.5v833h-156q-31 0 -46 18.5t-15 38.5z" />
<glyph unicode="V" horiz-adv-x="1906" d="M0 1339q0 23 14.5 39.5t42.5 16.5h643q31 0 46.5 -16.5t15.5 -39.5q0 -20 -15.5 -38.5t-46.5 -18.5h-188l485 -1024l498 1024h-217q-29 0 -44 18.5t-15 38.5q0 23 15 39.5t44 16.5h534q31 0 46.5 -16.5t15.5 -39.5q0 -20 -15.5 -38.5t-46.5 -18.5h-190l-606 -1249 q0 -2 -2 -4l-4 -4q-4 -6 -11.5 -10.5t-13.5 -8.5q-6 -2 -11 -4t-9 -2h-101q-4 0 -9 1t-9 3q-8 4 -16.5 9t-12.5 12l-4 4q-2 2 -2 4l-596 1249h-158q-29 0 -43 18.5t-14 38.5z" />
<glyph unicode="W" horiz-adv-x="2666" d="M2 1339q0 23 16.5 39.5t47.5 16.5h600q31 0 46 -16.5t15 -39.5q0 -20 -15.5 -38.5t-45.5 -18.5h-148l488 -1024l215 447l-275 577h-108q-33 0 -48.5 18.5t-15.5 38.5q0 23 15.5 39.5t48.5 16.5h415q31 0 46.5 -16.5t15.5 -39.5q0 -20 -15.5 -38.5t-46.5 -18.5h-12 l129 -270l131 270h-65q-31 0 -46.5 18.5t-15.5 38.5q0 23 15.5 39.5t46.5 16.5h385q31 0 46 -16.5t15 -39.5q0 -20 -15.5 -38.5t-45.5 -18.5h-193l-194 -403l295 -621l495 1024h-215q-31 0 -47 18.5t-16 38.5q0 23 16 39.5t47 16.5h533q33 0 48 -16.5t15 -39.5 q0 -20 -15.5 -38.5t-47.5 -18.5h-191l-606 -1249q0 -2 -2 -4l-4 -4q-4 -6 -11.5 -10.5t-13.5 -8.5q-6 -2 -11 -4t-9 -2h-101q-4 0 -10 2l-12 4l-13 9q-7 5 -12 10q-2 2 -3 4t-3 4l-256 538l-260 -538q-2 -2 -3 -4t-3 -4q-4 -4 -11 -10l-14 -9l-12 -4q-6 -2 -10 -2h-101 q-4 0 -10 2l-12 4l-13 9q-7 5 -12 10q-2 2 -3 4t-3 4l-594 1249h-157q-31 0 -46.5 18.5t-17.5 38.5z" />
<glyph unicode="X" horiz-adv-x="1845" d="M0 49v3v3q0 23 15.5 40.5t45.5 17.5h222l485 542l-465 627h-178q-33 0 -48.5 18.5t-15.5 38.5v3v4q2 18 17.5 33.5t46.5 15.5h651q29 0 44.5 -15.5t17.5 -33.5v-4v-3q0 -20 -15.5 -38.5t-46.5 -18.5h-153l323 -428l381 428h-203q-31 0 -46 18.5t-15 38.5v3v4 q2 18 17.5 33.5t43.5 15.5h549q29 0 45.5 -15.5t18.5 -33.5v-4v-3q0 -20 -16.5 -38.5t-47.5 -18.5h-194l-463 -520l489 -649h221q31 0 46.5 -17.5t15.5 -40.5v-3v-3q-2 -18 -17.5 -33.5t-44.5 -15.5h-700q-29 0 -44 15.5t-17 33.5v3v3q0 23 15 40.5t46 17.5h143l-333 448 l-400 -448h283q33 0 48 -17.5t15 -40.5v-3v-3q-2 -18 -17 -33.5t-46 -15.5h-658q-29 0 -44 15.5t-17 33.5z" />
<glyph unicode="Y" horiz-adv-x="1654" d="M0 1339v3v4q0 18 15.5 33.5t43.5 15.5h541q31 0 46.5 -15.5t17.5 -33.5v-4v-3q0 -20 -15.5 -38.5t-48.5 -18.5h-123l379 -637l387 637h-156q-31 0 -47 18.5t-16 38.5v3v4q2 18 17.5 33.5t45.5 15.5h449q29 0 44 -15.5t17 -33.5v-4v-3q0 -20 -15 -38.5t-46 -18.5h-160 l-477 -788v-381h188q31 0 46.5 -17.5t15.5 -40.5v-3v-3q-2 -18 -17.5 -33.5t-44.5 -15.5h-636q-29 0 -44.5 15.5t-17.5 33.5v3v3q0 23 15.5 40.5t46.5 17.5h204v389l-465 780h-131q-31 0 -45 18.5t-14 38.5z" />
<glyph unicode="Z" horiz-adv-x="1431" d="M6 59q0 8 3 15.5t7 15.5l932 1192h-512q-8 0 -16 -1t-17 -1q-80 -10 -153.5 -63.5t-114.5 -114.5q-6 -10 -15 -16.5t-18 -10.5q-4 0 -8 -1t-8 -1q-8 0 -16.5 3t-16.5 7q-12 8 -19 21.5t-7 28.5q0 8 3 15t7 15l227 348q8 12 18.5 18.5t22.5 10.5h5h5h6h5q6 -2 11 -3t9 -5 q12 -6 19.5 -18.5t7.5 -26.5q0 -8 -3 -17.5t-10 -19.5l-34 -55h106h809q25 0 41 -18.5t16 -41.5q-2 -8 -4 -15t-8 -15l-926 -1192h631q10 0 19.5 1t19.5 3q74 16 141.5 67.5t108.5 108.5q2 4 4 7t4 5q6 8 15.5 13.5t19.5 7.5h5h5h5h5q6 -2 11.5 -3t9.5 -6q12 -6 19.5 -17 t9.5 -21v-7v-4q0 -6 -1 -12t-6 -10l-235 -363q-10 -14 -23.5 -20t-27.5 -6q-8 0 -15.5 2t-15.5 6q-12 6 -19.5 18.5t-7.5 26.5q0 8 3.5 16t9.5 19l35 55h-1027q-27 0 -42 18t-15 41z" />
<glyph unicode="[" />
<glyph unicode="\" horiz-adv-x="585" d="M8 1419h115l455 -1933h-115z" />
<glyph unicode="]" />
<glyph unicode="^" />
<glyph unicode="_" d="M0 2h1024v-74h-1024v74z" />
<glyph unicode="`" horiz-adv-x="655" d="M33 1706v9q0 5 2 9q2 14 8 27.5t14 26.5q16 23 41 34t52 9h9q5 0 9 -2q14 -2 27.5 -7.5t25.5 -15.5t23.5 -23.5t23.5 -25.5v-2l2 -2q2 -4 6.5 -9t8.5 -10l112 -129q6 -8 8.5 -15t2.5 -17q0 -12 -4.5 -23.5t-12.5 -21.5q-10 -14 -23.5 -23.5t-29.5 -9.5h-5q-3 0 -5 2 q-2 0 -5.5 1t-5.5 3l-155 78q-8 4 -17.5 8l-19.5 8l-25 12q-12 6 -22 15q-23 18 -34 42.5t-11 51.5z" />
<glyph unicode="a" horiz-adv-x="952" d="M4 170q0 109 78 170t176 96q8 4 17.5 7l19.5 6q53 18 105 30l94 23v133q0 35 -13.5 58.5t-48.5 29.5q-6 2 -12 2h-12q-8 0 -16.5 -1t-16.5 -1q-53 -10 -103.5 -46t-81.5 -77q-6 -8 -13 -14l-13 -11q-6 -4 -13.5 -6t-13.5 -2q-8 0 -14 3t-12 5q-12 8 -21.5 21.5t-9.5 30.5 l4 16q2 8 6 16q47 88 127 144.5t178 64.5h9q5 0 12 2h9h9q102 0 179 -46t77 -162v-498q0 -8 4 -13.5t13 -9.5h3h3q10 0 17 6.5t15 16.5l10 18l11 21q4 8 10 18t12 19q8 10 17.5 16t21.5 6h7q2 0 6 -2q2 0 5 -1t5 -3q14 -6 23.5 -19.5t9.5 -31.5q0 -6 -2 -13.5t-7 -15.5 l-4 -8q-2 -4 -4 -10l-24 -50q-12 -26 -31 -49q-27 -33 -62.5 -51t-78.5 -18q-51 0 -93 21.5t-65 66.5q-51 -39 -115.5 -62.5t-130.5 -27.5h-12h-12h-16q-7 0 -15 2q-78 6 -142.5 51t-64.5 129zM205 184q4 -35 33.5 -52t62.5 -17h3h3h4q10 0 20.5 3t20.5 5q43 14 81 40.5 t61 59.5v158q-20 -6 -44 -12.5t-49 -14.5q-74 -25 -135 -62.5t-61 -98.5v-4v-5z" />
<glyph unicode="b" horiz-adv-x="1083" d="M4 1194v5q0 3 2 5q2 12 10.5 22.5t22.5 18.5l309 154q8 4 15.5 6t13.5 2q16 0 29.5 -9t19.5 -24q4 -6 5 -12t1 -12q0 -14 -8 -28.5t-27 -27.5q-31 -20 -50 -51t-19 -69v-379q53 35 113.5 55t123.5 20q182 0 303 -136t121 -312t-120.5 -312.5t-303.5 -136.5 q-70 0 -137.5 23.5t-120.5 69.5l-45 -60q-8 -10 -22.5 -16t-30.5 -6q-6 0 -12.5 1t-10.5 3q-20 4 -35.5 17t-15.5 36v1122l-45 -22q-8 -4 -15 -6t-16 -2q-16 0 -29.5 9t-19.5 23q-2 6 -4 13.5t-2 15.5zM328 240q35 -47 87 -78t111 -31q111 0 180.5 84t79.5 184q2 10 2 20v17 v17q0 8 -2 14q-10 104 -78.5 190t-181.5 86q-61 0 -111 -31.5t-87 -78.5v-393z" />
<glyph unicode="c" horiz-adv-x="827" d="M2 397v16v13v12v13q8 154 107.5 283.5t261.5 139.5q8 2 15 3h15h10h9q61 -4 119.5 -30t103.5 -67h2q8 14 18.5 22.5t22.5 10.5q2 2 5 2h5q8 0 14.5 -2t12.5 -6q14 -8 22.5 -21.5t8.5 -29.5q0 -6 -2 -13.5t-7 -15.5l-88 -168q-10 -18 -24.5 -25.5t-30.5 -7.5q-6 0 -12 2 l-12 4q-12 8 -21.5 21.5t-9.5 30.5q0 8 2 15t6 15l2 4q-2 4 -5 9.5t-5 11.5q-25 45 -63 82t-91 39h-2q-98 -2 -139 -77t-47 -163v-19v-18q0 -27 2 -52t6 -48q12 -63 54 -121.5t100 -87.5q23 -8 45 -13t45 -5q49 0 95 19.5t79 47.5q10 10 21.5 14.5t19.5 4.5q10 0 20 -5.5 t19 -13.5q8 -8 11 -18t3 -23q0 -6 -1 -11t-3 -11t-6 -11.5l-8 -11.5q-55 -63 -136.5 -110t-177.5 -47q-170 0 -275.5 129.5t-115.5 287.5z" />
<glyph unicode="d" horiz-adv-x="1110" d="M6 424q0 176 121 312t303 136h12h15q57 -4 113.5 -24.5t103.5 -54.5v372l-45 -22q-8 -4 -15.5 -6t-13.5 -2q-16 2 -29.5 11t-21.5 21q-2 4 -3 7.5t-1 7.5q-2 2 -2 6v6q0 16 8 30.5t27 22.5l309 154q10 4 17 6t16 2q16 0 28.5 -9t20.5 -22q4 -6 5 -13t1 -15v-5q0 -3 -2 -6 q-2 -12 -10.5 -22t-24.5 -19q-14 -8 -27.5 -21t-23.5 -30q-8 -14 -14.5 -32.5t-6.5 -36.5v-1024l62 30q8 4 15 6.5t15 2.5q16 0 29.5 -9.5t20.5 -23.5q4 -6 5 -13.5t1 -15.5v-5q0 -3 -2 -5q-2 -12 -10.5 -22.5t-22.5 -18.5l-221 -111q-6 -2 -13.5 -3t-15.5 -1q-6 0 -12 1 t-12 5q-14 6 -22.5 18.5t-8.5 35.5v30q-51 -39 -114.5 -59.5t-129.5 -20.5q-182 0 -303 136.5t-121 312.5zM205 438q0 -8 1 -17t1 -20q12 -100 80.5 -184t179.5 -84q66 0 119 33t88 84v377q-37 51 -89.5 84.5t-117.5 33.5q-111 0 -180.5 -86t-79.5 -190q-2 -6 -2 -14v-17z " />
<glyph unicode="e" horiz-adv-x="948" d="M2 426q0 92 36 174t99 143q66 63 150 97t172 34q47 0 93 -9t89 -31q43 -20 79 -52t62 -67q6 -8 8.5 -15.5t2.5 -17.5q0 -14 -7.5 -28.5t-21.5 -22.5l-535 -291q23 -63 55.5 -110.5t92.5 -82.5q35 -18 70.5 -27t68.5 -9q72 0 133.5 36.5t106.5 104.5q8 14 18 20.5t23 8.5 q2 2 5 2h5h5q3 0 5 -2q6 0 11.5 -2.5t9.5 -6.5q12 -8 19 -20t7 -27q0 -8 -3 -17t-9 -20q-63 -98 -167.5 -153t-221.5 -55q-186 0 -323.5 129t-137.5 317zM199 455l360 196q-33 31 -73 46.5t-80 15.5q-20 0 -43 -4t-46 -15q-57 -25 -89 -82q-30 -54 -29 -124v-10v-11v-12z " />
<glyph unicode="f" horiz-adv-x="925" d="M0 786q0 23 14.5 40.5t44.5 17.5h162v266q0 133 99.5 224t230.5 91q100 0 187 -56t122 -152q4 -6 4 -14v-15q0 -27 -18.5 -50.5t-46.5 -33.5q-2 0 -5 -1t-6 -1h-6h-6q-31 0 -56.5 19.5t-33.5 49.5q0 2 -1 5.5t-1 5.5q-10 45 -38 80.5t-79 35.5q-66 0 -103.5 -50 t-45.5 -109q-2 -6 -2 -14v-15v-266h237q33 0 48.5 -17.5t15.5 -40.5q0 -20 -15.5 -38.5t-48.5 -18.5h-237v-610h129q29 0 44 -16.5t17 -36.5v-4v-3q0 -20 -15.5 -38.5t-45.5 -18.5h-451q-31 0 -46 18.5t-15 38.5v3v4q2 20 17.5 36.5t43.5 16.5h127v610h-162q-31 0 -45 18.5 t-14 38.5z" />
<glyph unicode="g" horiz-adv-x="972" d="M-2 -256q0 70 44 129t99 100q4 2 8.5 5.5t8.5 5.5q-43 20 -70 60t-27 89q0 43 18.5 81t47.5 67q-57 51 -88 118.5t-31 143.5q0 152 112.5 254t260.5 102q86 0 165 -37t132 -102q18 4 33.5 13t27.5 22q18 18 28.5 41.5t10.5 50.5q0 31 18.5 46t39.5 15q23 0 41 -15t18 -46 q0 -51 -20.5 -96.5t-55.5 -77.5q-16 -18 -37.5 -31.5t-46.5 -24.5q10 -27 15.5 -56.5t5.5 -57.5q0 -154 -113 -256.5t-262 -102.5q-39 0 -79 8.5t-75 24.5q-20 -14 -35.5 -36.5t-15.5 -47.5q0 -27 23.5 -42t54.5 -23l32 -5q15 -2 25 -2h49h50q33 0 69.5 -4t73.5 -14 q104 -25 192.5 -90.5t88.5 -181.5q0 -113 -87.5 -178.5t-191.5 -94.5q-41 -10 -81 -15t-75 -5q-31 0 -64.5 3t-68.5 9q-102 18 -185 76.5t-83 177.5zM217 590q0 -29 5 -56.5t11 -50.5q4 -12 10.5 -26.5t14.5 -28.5q27 -45 68 -83t90 -38q10 0 20 2t21 6q49 18 68.5 67.5 t21.5 104.5v5v4q0 29 -4 57.5t-13 48.5q-4 12 -10 26.5t-14 28.5q-25 45 -66 83t-90 38q-10 0 -21.5 -2t-21.5 -6q-49 -18 -68.5 -67.5t-21.5 -104.5v-4v-4zM229 -240q0 -72 50.5 -119t121.5 -47q74 0 131.5 49.5t57.5 127.5v-2q0 78 -50.5 129t-123.5 51 q-76 0 -131.5 -53.5t-55.5 -135.5z" />
<glyph unicode="h" horiz-adv-x="1236" d="M0 57q0 23 14.5 40.5t46.5 17.5h86v1048l-45 -22q-8 -4 -15 -6t-15 -2q-16 0 -29.5 9t-19.5 23q-2 4 -3.5 7.5t-3.5 7.5v6v6q0 16 8.5 30.5t26.5 22.5l309 154q4 4 10.5 5t12.5 1q16 0 29.5 -8t21.5 -23q2 -2 3 -6t1 -6q2 -4 2 -7v-7q0 -14 -7 -28.5t-19 -23.5 q-33 -16 -53.5 -50t-20.5 -72v-400q49 39 109.5 61.5t125.5 28.5h10h11h6h4q139 0 251 -84t112 -256v-409h129q31 0 46 -17.5t15 -40.5q0 -20 -15.5 -38.5t-45.5 -18.5h-451q-31 0 -46 18.5t-15 38.5q0 23 15 40.5t46 17.5h127v411q0 106 -59.5 156.5t-134.5 50.5h-6h-5 q-4 -2 -6 -2h-6q-98 -8 -157.5 -70.5t-59.5 -160.5v-385h102q31 0 46.5 -17.5t15.5 -40.5q0 -20 -15.5 -38.5t-46.5 -18.5h-381q-33 0 -47 18.5t-14 38.5z" />
<glyph unicode="i" horiz-adv-x="573" d="M2 57q0 23 15.5 40.5t48.5 17.5h86v549l-46 -23q-8 -4 -15 -6t-15 -2q-16 0 -29.5 9t-19.5 24q-2 6 -5.5 12t-1.5 14v7q0 3 3 8q2 10 10 20t22 18l310 154q4 4 10 5t12 1q16 0 29.5 -8t21.5 -23q2 -2 3 -6t1 -6q2 -4 2 -7v-7q0 -14 -7 -28.5t-19 -22.5q-33 -18 -53.5 -51 t-20.5 -72v-559h102q31 0 46.5 -17.5t15.5 -40.5q0 -20 -15.5 -38.5t-46.5 -18.5h-380q-33 0 -48.5 18.5t-15.5 38.5zM121 1184q0 45 32.5 77.5t77.5 32.5q47 0 79 -32.5t32 -77.5t-31.5 -79t-79.5 -34q-45 0 -77.5 34t-32.5 79z" />
<glyph unicode="j" horiz-adv-x="509" d="M-154 -362q0 4 1 9t1 9q4 16 14.5 30.5t24.5 18.5q2 0 4.5 1t4.5 1h4h4q20 0 36.5 -12t20.5 -33q6 -31 23.5 -49.5t52.5 -18.5q45 0 70.5 34t29.5 75v8v8v945l-43 -23q-2 -2 -5 -3t-5 -1q-6 -2 -11 -3t-10 -1q-18 0 -31.5 9t-19.5 24l-4 12q-2 6 -2 12q0 16 9.5 30.5 t27.5 24.5l307 154q6 4 12.5 5t12.5 1q16 0 29.5 -8t19.5 -23q2 -4 4 -9t2 -11v-5v-5q0 -14 -6 -26.5t-21 -20.5q-33 -18 -52 -51t-19 -72v-975q0 -86 -69.5 -153.5t-180.5 -67.5q-88 0 -149.5 36.5t-84.5 102.5q-2 4 -2 9v12zM106 1184q0 45 33 77.5t78 32.5q47 0 80 -32.5 t33 -77.5t-33 -79t-80 -34q-45 0 -78 34t-33 79z" />
<glyph unicode="k" horiz-adv-x="1193" d="M6 57q0 23 15.5 40.5t48.5 17.5h86v1048l-45 -22q-8 -4 -15.5 -6t-15.5 -2q-16 0 -29.5 9t-19.5 23q-2 4 -3 7.5t-3 7.5v6v6q0 16 8 30.5t26 22.5l310 154q6 4 12 5t10 1q16 0 29.5 -8t21.5 -23q2 -2 3 -6t1 -6q2 -4 3 -7v-7q0 -14 -7.5 -28.5t-19.5 -23.5 q-33 -16 -53.5 -50t-20.5 -72v-760l359 313h-117q-31 0 -46.5 18.5t-15.5 38.5q0 23 15.5 40.5t46.5 17.5h422q31 0 46 -17.5t15 -40.5q0 -20 -15.5 -38.5t-45.5 -18.5h-131l-230 -201l297 -403l3 -3q1 -1 1 -3h117q31 -2 46 -19.5t15 -40.5q0 -20 -15 -38.5t-46 -18.5h-418 q-31 0 -49 16.5t-20 36.5v3v3q0 23 15 40.5t48 17.5h74l-209 284l-162 -139v-147h103q31 0 47 -17.5t16 -40.5q0 -20 -16.5 -38.5t-46.5 -18.5h-381q-31 0 -47.5 18.5t-16.5 38.5z" />
<glyph unicode="l" horiz-adv-x="573" d="M2 57q0 23 15.5 40.5t48.5 17.5h86v1048l-46 -22q-8 -4 -15 -6t-15 -2q-16 0 -29.5 9t-19.5 23q-2 4 -3 7.5t-4 7.5v6v6q0 16 8.5 30.5t26.5 22.5l310 154q4 4 10 5t12 1q16 0 29.5 -8t21.5 -23q2 -2 3 -6t1 -6q2 -4 2 -7v-7q0 -14 -7 -28.5t-19 -23.5q-33 -16 -53.5 -50 t-20.5 -72v-1059h102q31 0 46.5 -17.5t15.5 -40.5q0 -20 -15.5 -38.5t-46.5 -18.5h-380q-33 0 -48.5 18.5t-15.5 38.5z" />
<glyph unicode="m" horiz-adv-x="1843" d="M0 57q0 23 15.5 40.5t45.5 17.5h86v549l-43 -23q-8 -4 -16 -6t-16 -2q-16 0 -29.5 9t-19.5 24l-5 12q-2 6 -2 14v7q0 3 2 8q2 10 10.5 20t22.5 18l309 154q6 4 12.5 5t12.5 1q16 0 29.5 -8t19.5 -23q4 -6 5 -13t1 -15v-4v-2q0 -2 -1 -4t-1 -5q39 16 79 23.5t81 9.5h7h5 q90 0 172 -36.5t131 -110.5q53 72 137.5 108.5t174.5 38.5h6h4q139 0 250.5 -84t111.5 -256v-409h127q33 0 48.5 -17.5t15.5 -40.5q0 -20 -15.5 -38.5t-48.5 -18.5h-448q-31 0 -47.5 18.5t-16.5 38.5q0 23 16.5 40.5t47.5 17.5h127v411q0 106 -59.5 156.5t-135.5 50.5h-5h-5 q-4 -2 -6 -2h-6q-82 -6 -149.5 -63.5t-67.5 -157.5v-395h129q31 0 46 -17.5t15 -40.5q0 -20 -15.5 -38.5t-45.5 -18.5h-451q-31 0 -46 18.5t-15 38.5q0 23 15 40.5t46 17.5h129v411q0 106 -59.5 156.5t-134.5 50.5h-5h-6q-4 -2 -6 -2h-6h-5q-3 0 -7 -2q-76 -8 -140.5 -62.5 t-64.5 -148.5v-403h102q31 0 46.5 -17.5t15.5 -40.5q0 -20 -15.5 -38.5t-46.5 -18.5h-383q-31 0 -46 18.5t-15 38.5z" />
<glyph unicode="n" horiz-adv-x="1210" d="M4 57q0 23 15.5 40.5t46.5 17.5h86v549l-43 -23q-8 -4 -16.5 -6t-16.5 -2q-16 0 -29.5 9t-19.5 24l-4 12q-2 6 -3 14v7q0 3 3 8q2 10 10 20t22 18l310 154q6 4 12 5t12 1q16 0 29.5 -8t19.5 -23q4 -6 5 -13t1 -15v-4v-2q0 -2 -1 -4t-1 -5q39 16 79 23.5t81 9.5h6h4 q137 0 249 -84t112 -256v-409h100q31 0 47.5 -17.5t16.5 -40.5q0 -20 -16.5 -38.5t-47.5 -18.5h-422q-31 0 -46 18.5t-15 38.5q0 23 15.5 40.5t45.5 17.5h129v411q0 106 -59 156.5t-135 50.5h-5h-6q-4 -2 -6 -2h-6q-94 -8 -155.5 -69.5t-61.5 -157.5v-389h100 q33 0 48.5 -17.5t15.5 -40.5q0 -20 -15.5 -38.5t-48.5 -18.5h-380q-31 0 -46.5 18.5t-15.5 38.5z" />
<glyph unicode="o" horiz-adv-x="968" d="M8 424q0 182 127 322.5t316 140.5q188 0 313 -140.5t125 -322.5t-125 -322.5t-313 -140.5t-315.5 140.5t-127.5 322.5zM203 504q0 -35 6 -68t14 -61q6 -18 14.5 -38t18.5 -40q39 -72 106 -133q65 -59 143 -60h5h11h9q4 0 9.5 1t11.5 4q76 18 108.5 82.5t34.5 140.5v7v7 q0 35 -5 67.5t-13 59.5q-6 18 -14.5 37.5l-18.5 40.5q-41 72 -108 133q-65 59 -143 59h-5h-11h-9q-4 0 -9.5 -1t-11.5 -3q-74 -16 -106.5 -79.5t-36.5 -135.5v-9v-11z" />
<glyph unicode="p" horiz-adv-x="1093" d="M-10 -463q0 20 14 38.5t45 18.5l86 -2v1072l-43 -23q-8 -4 -16 -6t-17 -2q-16 0 -29.5 9t-19.5 24l-4 12q-2 6 -2 14v7q0 3 2 8q2 10 10.5 20t22.5 18l309 154q6 4 12.5 5t12.5 1q16 0 29.5 -8t19.5 -23q2 -2 3 -5t1 -5q2 -4 2 -6v-6q35 12 71 19.5t74 7.5 q182 0 303 -136.5t121 -312.5t-120.5 -312t-303.5 -136h-12h-14q-57 4 -113.5 24.5t-103.5 52.5v-467h102q31 2 46.5 -16t15.5 -39q0 -23 -15.5 -41t-46.5 -18l-383 -2q-31 2 -45 20t-14 41zM330 225q35 -51 88 -83.5t117 -32.5q113 0 182 87t78 191q2 6 2 13v14v13 q0 7 -2 13q-8 104 -78 191.5t-182 87.5q-63 0 -116.5 -32t-88.5 -85v-377z" />
<glyph unicode="q" horiz-adv-x="978" d="M0 428q0 176 122 313.5t302 137.5q72 0 138.5 -25t121.5 -70l45 60q10 12 24.5 18t28.5 6q4 0 10.5 -1t12.5 -3q20 -4 35.5 -18.5t15.5 -36.5v-1122l43 22q8 6 15.5 8t15.5 2q16 -2 29.5 -11t19.5 -21v-2q4 -4 5 -11.5t1 -15.5v-5q0 -3 -2 -5q-2 -12 -10 -22.5t-23 -18.5 l-307 -156q-8 -2 -15 -4t-16 -2q-16 0 -28.5 9t-20.5 24l-4 12q-2 6 -2 12q0 14 8 28.5t27 27.5q33 18 51.5 50t18.5 70v377q-45 -33 -100.5 -51t-112.5 -22h-13h-12q-180 0 -302 136t-122 310zM201 397q0 -8 2 -14q10 -104 79.5 -190.5t180.5 -86.5q61 0 111.5 32t87.5 79 v393q-35 47 -87.5 78t-111.5 31q-111 0 -179.5 -84t-80.5 -184q0 -10 -1 -19.5t-1 -17.5v-17z" />
<glyph unicode="r" horiz-adv-x="917" d="M0 57q0 23 15.5 40.5t45.5 17.5h86v549l-45 -23q-8 -4 -15 -6t-13 -2q-16 0 -29.5 9t-19.5 24q-2 6 -5.5 13t-3.5 15q2 16 10.5 29.5t24.5 21.5l309 154q4 4 10.5 5t12.5 1q16 -2 29.5 -10t19.5 -23q4 -6 5 -13t1 -15q0 -14 -6 -27.5t-20 -21.5q-16 -8 -28.5 -20.5 t-23.5 -29.5q-8 -14 -13 -32.5t-5 -38.5v-25l52 53l52 54l54 51l53 53q20 20 44 30.5t48 8.5q25 0 48.5 -9t43.5 -30l84 -84q6 -6 9.5 -14t5.5 -17v-5v-5q0 -12 -3.5 -22.5t-11.5 -18.5l-121 -121q-8 -8 -19 -12t-24 -2q-10 0 -20 3t-19 11l-71 74q-4 4 -9.5 6t-11.5 2 q-8 0 -16 -4t-14 -10l-154 -156v-370h170q29 0 44 -17.5t15 -40.5q0 -20 -15 -38.5t-44 -18.5h-451q-31 0 -46 18.5t-15 38.5z" />
<glyph unicode="s" horiz-adv-x="774" d="M0 194v9q0 20 10 33.5t25 19.5q4 2 10 3t12 1h4h5q12 -2 22 -11t16 -24l23 -55q16 -29 47 -45t66 -25q18 -4 36.5 -6t34.5 -2q39 0 73 11.5t60 29.5q25 16 36.5 35.5t8.5 40.5q0 29 -20 53.5t-55 38.5l-121 50l-123 52q-63 27 -104 86.5t-41 128.5q0 53 28.5 101.5 t77.5 81.5q35 25 77 40t87 21q8 0 15 1t16 1q6 2 13 2h15q29 0 58.5 -3t56.5 -11q8 16 22.5 24.5t28.5 8.5h2h1q17 -2 32.5 -12.5t22.5 -28.5l31 -86l30 -88q2 -6 3 -12.5t1 -10.5q-2 -20 -12 -33.5t-27 -17.5q-2 0 -5 -1t-5 -1q-2 -2 -5 -2h-5q-16 0 -30.5 10t-23.5 31 q-4 10 -7 20.5t-7 20.5q-12 27 -39.5 43t-56.5 24q-18 4 -34.5 6.5t-31.5 2.5q-10 0 -21 -1t-22 -4q-37 -6 -68.5 -28.5t-31.5 -63.5q0 -20 15.5 -35.5t35.5 -23.5l61 -25l60 -24q10 -6 19.5 -10.5t19.5 -8.5l40 -16l40 -16q76 -33 128 -100.5t52 -151.5q0 -106 -82 -173 t-180 -87q-25 -6 -49.5 -9.5t-46.5 -3.5q-51 0 -96.5 8.5t-82.5 22.5q-8 -4 -18 -7t-21 -3q-16 2 -31.5 11t-21.5 28l-51 153q-2 7 -2 12z" />
<glyph unicode="t" horiz-adv-x="839" d="M-4 786q0 23 13.5 40.5t43.5 17.5q90 0 146.5 47t70.5 137q4 20 19.5 31.5t32.5 15.5h7h5h1h2h1q23 -2 41 -15t18 -42v-43v-43v-44v-44h75h75h75h74q29 0 44.5 -17.5t15.5 -40.5q0 -20 -14.5 -38.5t-45.5 -18.5h-74h-75h-75h-75v-123v-123v-125v-122q0 -51 32 -77t71 -28 h3h3q41 0 73.5 27.5t32.5 79.5q0 29 18.5 44t39.5 15q23 0 41 -15.5t18 -45.5q0 -106 -75.5 -183.5t-184.5 -77.5q-106 0 -182 76t-76 182v247v249h-148q-27 0 -47 12t-20 45z" />
<glyph unicode="u" horiz-adv-x="1181" d="M2 729v5q0 3 2 5q2 12 10.5 22.5t22.5 18.5l309 156q4 2 9 3t10 1q16 0 29.5 -9t21.5 -24q4 -8 5 -15t1 -15q0 -14 -6 -26.5t-21 -19.5q-29 -14 -46 -42.5t-21 -59.5q-2 -4 -2 -9v-9v-416q0 -80 51 -143.5t135 -63.5h13q7 0 14 2q82 8 151.5 64.5t69.5 144.5v410l-45 -21 q-8 -4 -15.5 -6t-13.5 -2q-16 0 -29.5 9t-19.5 24q-2 6 -5 13t-3 15q2 14 10 27.5t25 22.5l309 155q2 0 5 1t5 1q2 2 5 2h5q16 0 29.5 -8t21.5 -24q2 -2 3.5 -6.5t1.5 -6.5q2 -4 2 -7v-7q0 -14 -6.5 -27.5t-20.5 -21.5q-33 -18 -51.5 -51t-18.5 -70l-2 -553l62 31q8 4 15 6 t15 2q16 -2 29.5 -11.5t20.5 -21.5q4 -6 5 -13t1 -16v-5q0 -3 -2 -5q-2 -12 -10.5 -22.5t-22.5 -18.5l-221 -110q-4 0 -8 -2l-9 -5q-6 0 -10 -1t-8 -1q-6 0 -12 2.5t-13 6.5q-10 6 -17 18t-7 31v33q-39 -35 -90.5 -57.5t-106.5 -31.5q-10 -2 -21.5 -3t-23.5 -1 q-150 0 -267.5 87t-119.5 253v385l-43 -22q-8 -2 -15 -4t-14 -2q-18 0 -31.5 8t-19.5 22q-2 6 -4 13.5t-2 15.5z" />
<glyph unicode="v" horiz-adv-x="1138" d="M4 780q0 23 15.5 40.5t46.5 17.5h401q31 0 46 -17.5t15 -40.5q0 -20 -15 -38.5t-46 -18.5h-102l210 -512l201 512h-112q-29 0 -44.5 18.5t-15.5 38.5q0 23 15.5 40.5t44.5 17.5h358q29 0 44 -17.5t15 -40.5q0 -20 -15 -38.5t-44 -18.5h-123l-281 -725h-186l-287 725h-79 q-31 0 -46.5 18.5t-15.5 38.5z" />
<glyph unicode="w" horiz-adv-x="1581" d="M8 780q0 23 14.5 40.5t45.5 17.5h317q31 0 45 -17.5t14 -40.5q0 -20 -14 -38.5t-45 -18.5h-16l209 -512l98 248l-105 264h-18q-31 0 -46 18.5t-15 38.5q0 23 15 40.5t46 17.5h272q31 0 46.5 -17.5t15.5 -40.5q0 -20 -15.5 -38.5t-46.5 -18.5h-34l210 -512l201 512h-112 q-31 0 -45.5 18.5t-14.5 38.5q0 23 14.5 40.5t45.5 17.5h356q31 0 46 -17.5t15 -40.5q0 -20 -15 -38.5t-46 -18.5h-121l-283 -725h-184l-121 303l-116 -303h-187l-287 725h-79q-31 0 -45.5 18.5t-14.5 38.5z" />
<glyph unicode="x" horiz-adv-x="1224" d="M0 57q0 23 14.5 41.5t42.5 18.5h125l271 282l-258 328h-111q-31 0 -45 18.5t-14 38.5q0 23 14 40.5t45 17.5h393q31 0 46.5 -17.5t15.5 -40.5q0 -20 -15.5 -38.5t-46.5 -18.5h-39l148 -186l178 186h-64q-31 0 -46 18.5t-15 38.5q0 23 15.5 40.5t45.5 17.5h332 q29 0 44.5 -17.5t15.5 -40.5q0 -20 -15.5 -38.5t-44.5 -18.5h-108l-265 -276l269 -334h147q29 0 44.5 -18.5t15.5 -41.5q0 -20 -15.5 -38.5t-44.5 -18.5h-424q-29 0 -44 18.5t-15 38.5q0 23 15.5 41.5t43.5 18.5h25l-152 190l-182 -190h113q31 0 46 -18.5t15 -41.5 q0 -20 -15.5 -38.5t-45.5 -18.5h-398q-29 0 -43 18.5t-14 38.5z" />
<glyph unicode="y" horiz-adv-x="1157" d="M0 764q0 23 15.5 40t45.5 17h410q31 0 46 -17.5t15 -39.5q0 -20 -15 -38.5t-46 -18.5h-80l176 -496l56 124l53 124q27 61 51 124l47 124h-72q-31 0 -46 18t-15 39q0 23 15.5 40t45.5 17h316q29 0 44 -17.5t15 -39.5q0 -20 -15 -38.5t-44 -18.5h-121l-43 -116l-45 -116 q-102 -256 -222 -506t-257 -483q-8 -12 -21.5 -20.5t-29.5 -8.5l-132 -2q-33 2 -50 25.5t-5 52.5q2 4 4 9t6 9l20 23q9 10 17 23l62 71q31 35 59 72q53 63 99.5 128.5t78.5 135.5l-264 703h-113q-31 0 -46 18.5t-15 38.5z" />
<glyph unicode="z" horiz-adv-x="987" d="M0 584q2 8 5 17t9 17l271 365q8 10 16 15.5t16 7.5q4 0 8.5 1t8.5 1q10 0 17 -3.5t16 -9.5q10 -8 17 -19t7 -26q0 -8 -3 -17t-11 -20l-51 -71h499q27 0 42.5 -18.5t15.5 -41.5q0 -10 -4.5 -20t-12.5 -19l-551 -548h428l74 98q6 10 15.5 16t19.5 8q2 2 6 2h6q10 0 19 -4 l16 -8q10 -8 17.5 -20.5t7.5 -26.5q-2 -8 -4 -17.5t-11 -19.5l-270 -362q-6 -8 -15.5 -13.5t-17.5 -9.5q-4 0 -8 -1t-8 -1q-8 0 -17 4l-16 8q-10 8 -17.5 20.5t-7.5 27.5q0 4 1.5 11t5.5 13q2 2 4 5t4 7l51 68h-492q-39 0 -53 15.5t-14 35.5v4v4q2 12 7 22.5t11 16.5 l551 551h-428l-74 -98q-6 -10 -15 -16.5t-19 -8.5q-2 -2 -5 -2h-8q-8 0 -17 4t-17 9q-10 8 -17.5 20.5t-7.5 26.5z" />
<glyph unicode="{" />
<glyph unicode="|" />
<glyph unicode="}" />
<glyph unicode="~" />
<glyph unicode="&#xa2;" horiz-adv-x="827" d="M37 758v16v11v10q6 145 95 271t235 153v153q0 29 16 44.5t37 17.5h3h3q23 0 40 -15.5t17 -46.5v-151q53 -8 104.5 -33t92.5 -60q8 14 18.5 22.5t22.5 10.5q2 2 5 2h5q8 0 14.5 -2t12.5 -6q14 -6 23.5 -19.5t6.5 -29.5q0 -4 -1 -9t-3 -12q0 -2 -1 -5t-3 -5l-88 -168 q-8 -18 -22.5 -25.5t-30.5 -7.5h-6q-4 0 -6 3q-4 0 -7.5 1t-7.5 3q-12 8 -21 21t-9 30q0 8 2 15t6 16l4 4q-2 4 -5 9t-5 9q-18 33 -43 62.5t-58 46.5v-590h4h3q52 0 97.5 19.5t78.5 49.5q10 10 20 13.5t21 3.5q12 0 22 -5t19 -14q6 -8 10 -18t2 -21q0 -10 -4 -22t-15 -25 q-47 -55 -113.5 -98t-144.5 -57v-348q0 -31 -17 -46.5t-40 -15.5h-3h-3q-20 2 -36.5 17.5t-16.5 46.5v346q-141 27 -229.5 148.5t-98.5 262.5q-2 9 -2 17zM240 834q0 -27 3 -53.5t5 -49.5q0 -4 1 -7t1 -7q14 -49 44 -96.5t73 -77.5v555q-68 -25 -95.5 -91.5t-31.5 -144.5 v-13v-15z" />
<glyph unicode="&#xa3;" horiz-adv-x="1228" d="M55 12q2 12 8.5 24.5t20.5 22.5l13 12.5t16 12.5q8 6 15 14t13 17q59 66 103.5 145.5t79.5 163.5q2 6 5 12t5 13h-160q-31 0 -46 18t-15 39q0 23 15 40t46 17h203q25 74 44 154t34 162q6 43 17 90t28 94q47 143 141 265t252 132h6h6h5h5q20 0 42 -2t44 -6 q61 -12 113.5 -45t56.5 -94v-5v-8q0 -45 -29.5 -66.5t-66.5 -21.5h-3h-1h-3h-3q-37 4 -66.5 29t-27.5 66v6v6q0 2 1 5t1 5q-4 2 -8 3t-9 3q-6 2 -10 3t-8 3h-4q-2 0 -4 2h-4h-4q-45 -2 -81 -38.5t-59 -81.5q-12 -20 -21 -42l-16 -38l-16 -47q-8 -25 -14 -49q-10 -33 -18 -67 l-13 -65q-14 -94 -40 -182t-54 -170h168q31 0 46 -17.5t15 -39.5q0 -20 -15.5 -38.5t-45.5 -18.5h-217q-27 -59 -56.5 -111.5t-60.5 -95.5h9q5 0 9 2h10h9q53 0 96 -12.5t84 -34.5q23 -12 45.5 -28.5t46.5 -37.5l11.5 -8l11.5 -8q29 -23 62.5 -42.5t70.5 -19.5h5h3 q41 4 76 28.5t43 63.5q-6 -10 -19.5 -15t-29.5 -5h-9h-8q-16 2 -31.5 7t-23.5 11q-20 12 -30.5 27.5t-12.5 32.5q-2 4 -2 8v8q0 37 29.5 67.5t74.5 32.5h4h5h2h4q63 0 111 -37.5t55 -105.5v-5v-7q0 -51 -22.5 -94t-63.5 -76q-39 -33 -92.5 -53.5t-114.5 -22.5h-9h-10 q-100 0 -155.5 39t-100.5 82l-3 3l-3 3q-23 23 -43 39t-39 27q-16 6 -32.5 10t-32.5 4q-23 0 -48.5 -7t-56.5 -22q-31 -12 -53 -33l-45 -43l-1 -1l-1 -1q-14 -14 -27.5 -25l-29.5 -24q-6 -4 -11.5 -7t-9.5 -3q-4 -2 -9 -3t-11 -1q-23 2 -39.5 19.5t-16.5 37.5z" />
<glyph unicode="&#xa5;" horiz-adv-x="1759" d="M80 1339q0 23 15.5 39.5t45.5 16.5h541q33 0 48 -16.5t15 -39.5q0 -20 -15 -38.5t-48 -18.5h-123l379 -637l387 637h-156q-31 0 -47 18.5t-16 38.5q0 23 15.5 39.5t47.5 16.5h449q31 0 46 -16.5t15 -39.5q0 -20 -15 -38.5t-46 -18.5h-160l-287 -473h215q31 0 46.5 -16.5 t15.5 -38.5q0 -20 -15.5 -38t-46.5 -18h-282l-39 -63h317q33 0 48.5 -17.5t15.5 -39.5q0 -20 -15.5 -38t-48.5 -18h-385l-16 -28v-381h188q31 0 46.5 -17.5t15.5 -40.5v-3v-3q-2 -18 -17.5 -33.5t-44.5 -15.5h-637q-29 0 -44 15.5t-17 33.5v3v3q0 23 15.5 40.5t45.5 17.5 h205v389l-10 20h-373q-33 0 -48 17.5t-15 38.5q0 23 15.5 40t47.5 17h305l-38 63h-267q-33 0 -48 17.5t-15 38.5q0 23 15.5 39t47.5 16h201l-283 473h-131q-31 0 -46 18.5t-15 38.5z" />
<glyph unicode="&#xa9;" />
<glyph unicode="&#xad;" horiz-adv-x="440" d="M20 659q0 23 15.5 40.5t46.5 17.5h276q31 0 46.5 -17.5t15.5 -40.5q0 -20 -15.5 -38.5t-46.5 -18.5h-276q-31 0 -46.5 18.5t-15.5 38.5z" />
<glyph unicode="&#xae;" />
<glyph unicode="&#xb4;" horiz-adv-x="577" d="M43 1532v5v5l4 11.5t6 9.5l113 129q4 6 8 11t8 11q10 14 21.5 26.5t25.5 22.5q16 12 34 18.5t38 6.5q27 0 50.5 -10.5t41.5 -32.5q12 -16 18.5 -34.5t6.5 -37.5q0 -27 -11.5 -51.5t-33.5 -40.5q-10 -8 -22.5 -15t-24.5 -12q-6 -4 -12.5 -6t-10.5 -4t-7 -3t-7 -3l-156 -80 q-2 -2 -5 -3t-5 -1h-5h-5q-14 0 -28.5 8t-25.5 23q-8 10 -13 22.5t-3 24.5z" />
<glyph unicode="&#x2000;" horiz-adv-x="909" />
<glyph unicode="&#x2001;" horiz-adv-x="1820" />
<glyph unicode="&#x2002;" horiz-adv-x="909" />
<glyph unicode="&#x2003;" horiz-adv-x="1820" />
<glyph unicode="&#x2004;" horiz-adv-x="606" />
<glyph unicode="&#x2005;" horiz-adv-x="454" />
<glyph unicode="&#x2006;" horiz-adv-x="303" />
<glyph unicode="&#x2007;" horiz-adv-x="303" />
<glyph unicode="&#x2008;" horiz-adv-x="227" />
<glyph unicode="&#x2009;" horiz-adv-x="362" />
<glyph unicode="&#x200a;" horiz-adv-x="100" />
<glyph unicode="&#x2010;" horiz-adv-x="440" d="M20 659q0 23 15.5 40.5t46.5 17.5h276q31 0 46.5 -17.5t15.5 -40.5q0 -20 -15.5 -38.5t-46.5 -18.5h-276q-31 0 -46.5 18.5t-15.5 38.5z" />
<glyph unicode="&#x2011;" horiz-adv-x="440" d="M20 659q0 23 15.5 40.5t46.5 17.5h276q31 0 46.5 -17.5t15.5 -40.5q0 -20 -15.5 -38.5t-46.5 -18.5h-276q-31 0 -46.5 18.5t-15.5 38.5z" />
<glyph unicode="&#x2012;" horiz-adv-x="440" d="M20 659q0 23 15.5 40.5t46.5 17.5h276q31 0 46.5 -17.5t15.5 -40.5q0 -20 -15.5 -38.5t-46.5 -18.5h-276q-31 0 -46.5 18.5t-15.5 38.5z" />
<glyph unicode="&#x2013;" d="M20 659q0 23 15.5 40.5t46.5 17.5h850q31 0 46 -17.5t15 -40.5q0 -20 -15 -38.5t-46 -18.5h-850q-31 0 -46.5 18.5t-15.5 38.5z" />
<glyph unicode="&#x2014;" horiz-adv-x="2048" d="M20 659q0 23 15.5 40.5t46.5 17.5h1874q31 0 46 -17.5t15 -40.5q0 -20 -15 -38.5t-46 -18.5h-1874q-31 0 -46.5 18.5t-15.5 38.5z" />
<glyph unicode="&#x2018;" horiz-adv-x="247" d="M18 1266q0 8 1 16t4 16q4 16 11 34t17 32q23 35 57.5 58.5t71.5 21.5h10q6 0 13 -2v-10q-27 -18 -38 -44t7 -53q2 -4 5 -8t7 -8q14 -14 21.5 -31.5t7.5 -38.5q0 -8 -2 -17t-6 -20q-10 -27 -35 -42t-53 -15h-9q-5 0 -10 2q-6 0 -11 2t-9 4q-33 18 -46.5 45t-13.5 58z" />
<glyph unicode="&#x2019;" horiz-adv-x="247" d="M25 1327q0 10 2 19.5t6 17.5q10 29 35.5 43t52.5 14h9q5 0 11 -2q4 0 9.5 -2t9.5 -4q33 -18 46 -45t13 -57q0 -8 -1 -16.5t-3 -16.5q-4 -16 -11 -32.5t-18 -33.5q-23 -33 -57.5 -57.5t-71.5 -21.5h-10q-6 0 -12 2v10q27 18 38 43.5t-7 52.5q-2 4 -5.5 8t-7.5 8 q-14 14 -21 32t-7 38z" />
<glyph unicode="&#x201c;" horiz-adv-x="444" d="M18 1266q0 8 1 16t4 16q4 16 11 34t17 32q23 35 57.5 58.5t71.5 21.5h10q6 0 13 -2v-10q-27 -18 -38 -44t7 -53q2 -4 5 -8t7 -8q14 -14 21.5 -31.5t7.5 -38.5q0 -8 -2 -17t-6 -20q-10 -27 -35 -42t-53 -15h-9q-5 0 -10 2q-6 0 -11 2t-9 4q-33 18 -46.5 45t-13.5 58z M223 1266q0 8 1 16t3 16q4 16 11.5 34t17.5 32q23 35 57.5 58.5t71.5 21.5h10q6 0 13 -2v-10q-27 -18 -38.5 -44t7.5 -53q2 -4 5 -8t7 -8q14 -14 21.5 -31.5t7.5 -38.5q0 -8 -2 -17t-6 -20q-10 -27 -35 -42t-53 -15h-10q-5 0 -9 2q-6 0 -11 2t-9 4q-33 18 -46.5 45t-13.5 58 z" />
<glyph unicode="&#x201d;" horiz-adv-x="444" d="M25 1327q0 10 2 19.5t6 17.5q10 29 35.5 43t52.5 14h9q5 0 11 -2q4 0 9.5 -2t9.5 -4q33 -18 46 -45t13 -57q0 -8 -1 -16.5t-3 -16.5q-4 -16 -11 -32.5t-18 -33.5q-23 -33 -57.5 -57.5t-71.5 -21.5h-10q-6 0 -12 2v10q27 18 38 43.5t-7 52.5q-2 4 -5.5 8t-7.5 8 q-14 14 -21 32t-7 38zM229 1327q0 10 2 19.5t7 17.5q10 29 35.5 43t52.5 14h9q5 0 11 -2q4 0 9 -2l10 -4q33 -18 46 -45t13 -57q0 -8 -1 -16.5t-3 -16.5q-4 -16 -11.5 -32.5t-17.5 -33.5q-23 -33 -57.5 -57.5t-71.5 -21.5h-10q-6 0 -12 2v10q27 18 38 43.5t-8 52.5 q-2 4 -5 8t-7 8q-14 14 -21.5 32t-7.5 38z" />
<glyph unicode="&#x2022;" horiz-adv-x="503" d="M63 731q0 80 58.5 136.5t134.5 56.5q80 0 136.5 -56.5t56.5 -136.5q0 -76 -56.5 -134t-136.5 -58q-76 0 -134.5 58t-58.5 134z" />
<glyph unicode="&#x2026;" horiz-adv-x="935" d="M84 76q0 41 28.5 68.5t67.5 27.5q41 0 68.5 -27.5t27.5 -68.5q0 -39 -27.5 -66.5t-68.5 -27.5q-39 0 -67.5 27.5t-28.5 66.5zM371 76q0 41 28.5 68.5t67.5 27.5q41 0 68.5 -27.5t27.5 -68.5q0 -39 -27.5 -66.5t-68.5 -27.5q-39 0 -67.5 27.5t-28.5 66.5zM657 76 q0 41 29 68.5t68 27.5q41 0 68.5 -27.5t27.5 -68.5q0 -39 -27.5 -66.5t-68.5 -27.5q-39 0 -68 27.5t-29 66.5z" />
<glyph unicode="&#x202f;" horiz-adv-x="362" />
<glyph unicode="&#x205f;" horiz-adv-x="454" />
<glyph unicode="&#x2122;" />
<glyph unicode="&#xe000;" horiz-adv-x="840" d="M0 840h840v-840h-840v840z" />
<glyph unicode="&#xfb01;" horiz-adv-x="1499" d="M928 57q0 23 15.5 40.5t48.5 17.5h86v549l-46 -23q-8 -4 -15 -6t-15 -2q-16 0 -29.5 9t-19.5 24q-2 6 -5.5 12t-1.5 14v7q0 3 3 8q2 10 10 20t22 18l310 154q4 4 10 5t12 1q16 0 29.5 -8t21.5 -23q2 -2 3 -6t1 -6q2 -4 2 -7v-7q0 -14 -7 -28.5t-19 -22.5 q-33 -18 -53.5 -51t-20.5 -72v-559h102q31 0 46.5 -17.5t15.5 -40.5q0 -20 -15.5 -38.5t-46.5 -18.5h-380q-33 0 -48.5 18.5t-15.5 38.5zM1047 1184q0 45 32.5 77.5t77.5 32.5q47 0 79 -32.5t32 -77.5t-31.5 -79t-79.5 -34q-45 0 -77.5 34t-32.5 79zM0 786q0 23 14.5 40.5 t44.5 17.5h162v266q0 133 99.5 224t230.5 91q100 0 187 -56t122 -152q4 -6 4 -14v-15q0 -27 -18.5 -50.5t-46.5 -33.5q-2 0 -5 -1t-6 -1h-6h-6q-31 0 -56.5 19.5t-33.5 49.5q0 2 -1 5.5t-1 5.5q-10 45 -38 80.5t-79 35.5q-66 0 -103.5 -50t-45.5 -109q-2 -6 -2 -14v-15v-266 h237q33 0 48.5 -17.5t15.5 -40.5q0 -20 -15.5 -38.5t-48.5 -18.5h-237v-610h129q29 0 44 -16.5t17 -36.5v-4v-3q0 -20 -15.5 -38.5t-45.5 -18.5h-451q-31 0 -46 18.5t-15 38.5v3v4q2 20 17.5 36.5t43.5 16.5h127v610h-162q-31 0 -45 18.5t-14 38.5z" />
<glyph unicode="&#xfb02;" horiz-adv-x="1499" d="M928 57q0 23 15.5 40.5t48.5 17.5h86v1048l-46 -22q-8 -4 -15 -6t-15 -2q-16 0 -29.5 9t-19.5 23q-2 4 -3 7.5t-4 7.5v6v6q0 16 8.5 30.5t26.5 22.5l310 154q4 4 10 5t12 1q16 0 29.5 -8t21.5 -23q2 -2 3 -6t1 -6q2 -4 2 -7v-7q0 -14 -7 -28.5t-19 -23.5 q-33 -16 -53.5 -50t-20.5 -72v-1059h102q31 0 46.5 -17.5t15.5 -40.5q0 -20 -15.5 -38.5t-46.5 -18.5h-380q-33 0 -48.5 18.5t-15.5 38.5zM0 786q0 23 14.5 40.5t44.5 17.5h162v266q0 133 99.5 224t230.5 91q100 0 187 -56t122 -152q4 -6 4 -14v-15q0 -27 -18.5 -50.5 t-46.5 -33.5q-2 0 -5 -1t-6 -1h-6h-6q-31 0 -56.5 19.5t-33.5 49.5q0 2 -1 5.5t-1 5.5q-10 45 -38 80.5t-79 35.5q-66 0 -103.5 -50t-45.5 -109q-2 -6 -2 -14v-15v-266h237q33 0 48.5 -17.5t15.5 -40.5q0 -20 -15.5 -38.5t-48.5 -18.5h-237v-610h129q29 0 44 -16.5t17 -36.5 v-4v-3q0 -20 -15.5 -38.5t-45.5 -18.5h-451q-31 0 -46 18.5t-15 38.5v3v4q2 20 17.5 36.5t43.5 16.5h127v610h-162q-31 0 -45 18.5t-14 38.5z" />
<glyph unicode="&#xfb03;" horiz-adv-x="2424" d="M1853 57q0 23 15.5 40.5t48.5 17.5h86v549l-46 -23q-8 -4 -15 -6t-15 -2q-16 0 -29.5 9t-19.5 24q-2 6 -5.5 12t-1.5 14v7q0 3 3 8q2 10 10 20t22 18l310 154q4 4 10 5t12 1q16 0 29.5 -8t21.5 -23q2 -2 3 -6t1 -6q2 -4 2 -7v-7q0 -14 -7 -28.5t-19 -22.5 q-33 -18 -53.5 -51t-20.5 -72v-559h102q31 0 46.5 -17.5t15.5 -40.5q0 -20 -15.5 -38.5t-46.5 -18.5h-380q-33 0 -48.5 18.5t-15.5 38.5zM1972 1184q0 45 32.5 77.5t77.5 32.5q47 0 79 -32.5t32 -77.5t-31.5 -79t-79.5 -34q-45 0 -77.5 34t-32.5 79zM926 786q0 23 14.5 40.5 t44.5 17.5h162v266q0 133 99.5 224t230.5 91q100 0 187 -56t122 -152q4 -6 4 -14v-15q0 -27 -18.5 -50.5t-46.5 -33.5q-2 0 -5 -1t-6 -1h-6h-6q-31 0 -56.5 19.5t-33.5 49.5q0 2 -1 5.5t-1 5.5q-10 45 -38 80.5t-79 35.5q-66 0 -103.5 -50t-45.5 -109q-2 -6 -2 -14v-15v-266 h237q33 0 48.5 -17.5t15.5 -40.5q0 -20 -15.5 -38.5t-48.5 -18.5h-237v-610h129q29 0 44 -16.5t17 -36.5v-4v-3q0 -20 -15.5 -38.5t-45.5 -18.5h-451q-31 0 -46 18.5t-15 38.5v3v4q2 20 17.5 36.5t43.5 16.5h127v610h-162q-31 0 -45 18.5t-14 38.5zM0 786q0 23 14.5 40.5 t44.5 17.5h162v266q0 133 99.5 224t230.5 91q100 0 187 -56t122 -152q4 -6 4 -14v-15q0 -27 -18.5 -50.5t-46.5 -33.5q-2 0 -5 -1t-6 -1h-6h-6q-31 0 -56.5 19.5t-33.5 49.5q0 2 -1 5.5t-1 5.5q-10 45 -38 80.5t-79 35.5q-66 0 -103.5 -50t-45.5 -109q-2 -6 -2 -14v-15v-266 h237q33 0 48.5 -17.5t15.5 -40.5q0 -20 -15.5 -38.5t-48.5 -18.5h-237v-610h129q29 0 44 -16.5t17 -36.5v-4v-3q0 -20 -15.5 -38.5t-45.5 -18.5h-451q-31 0 -46 18.5t-15 38.5v3v4q2 20 17.5 36.5t43.5 16.5h127v610h-162q-31 0 -45 18.5t-14 38.5z" />
<glyph unicode="&#xfb04;" horiz-adv-x="2424" d="M1853 57q0 23 15.5 40.5t48.5 17.5h86v1048l-46 -22q-8 -4 -15 -6t-15 -2q-16 0 -29.5 9t-19.5 23q-2 4 -3 7.5t-4 7.5v6v6q0 16 8.5 30.5t26.5 22.5l310 154q4 4 10 5t12 1q16 0 29.5 -8t21.5 -23q2 -2 3 -6t1 -6q2 -4 2 -7v-7q0 -14 -7 -28.5t-19 -23.5 q-33 -16 -53.5 -50t-20.5 -72v-1059h102q31 0 46.5 -17.5t15.5 -40.5q0 -20 -15.5 -38.5t-46.5 -18.5h-380q-33 0 -48.5 18.5t-15.5 38.5zM926 786q0 23 14.5 40.5t44.5 17.5h162v266q0 133 99.5 224t230.5 91q100 0 187 -56t122 -152q4 -6 4 -14v-15q0 -27 -18.5 -50.5 t-46.5 -33.5q-2 0 -5 -1t-6 -1h-6h-6q-31 0 -56.5 19.5t-33.5 49.5q0 2 -1 5.5t-1 5.5q-10 45 -38 80.5t-79 35.5q-66 0 -103.5 -50t-45.5 -109q-2 -6 -2 -14v-15v-266h237q33 0 48.5 -17.5t15.5 -40.5q0 -20 -15.5 -38.5t-48.5 -18.5h-237v-610h129q29 0 44 -16.5t17 -36.5 v-4v-3q0 -20 -15.5 -38.5t-45.5 -18.5h-451q-31 0 -46 18.5t-15 38.5v3v4q2 20 17.5 36.5t43.5 16.5h127v610h-162q-31 0 -45 18.5t-14 38.5zM0 786q0 23 14.5 40.5t44.5 17.5h162v266q0 133 99.5 224t230.5 91q100 0 187 -56t122 -152q4 -6 4 -14v-15q0 -27 -18.5 -50.5 t-46.5 -33.5q-2 0 -5 -1t-6 -1h-6h-6q-31 0 -56.5 19.5t-33.5 49.5q0 2 -1 5.5t-1 5.5q-10 45 -38 80.5t-79 35.5q-66 0 -103.5 -50t-45.5 -109q-2 -6 -2 -14v-15v-266h237q33 0 48.5 -17.5t15.5 -40.5q0 -20 -15.5 -38.5t-48.5 -18.5h-237v-610h129q29 0 44 -16.5t17 -36.5 v-4v-3q0 -20 -15.5 -38.5t-45.5 -18.5h-451q-31 0 -46 18.5t-15 38.5v3v4q2 20 17.5 36.5t43.5 16.5h127v610h-162q-31 0 -45 18.5t-14 38.5z" />
</font>
</defs>
</svg>
