<svg version="1.2" baseProfile="tiny" xmlns="http://www.w3.org/2000/svg" width="480" height="480" viewBox="0 0 480 480"><path fill="#292A29" d="M444.667 256.417c-2.583 3.667-13.932 15.115-19.398 20.942-2.44-.16-2.27 2.15-3.24 3.39-15.09 14.27-30.32 28.39-45.238 42.85-20.76 20.11-42.43 39.36-60.405 62.18-2.48 3.15-5.544 4.38-9.554 4.19-4.815-.224-9.653-.033-14.48.09-29.46.76-58.91 1.11-87.716-6.52-13.543-3.59-25.942-9.63-34.9-20.83-5.884-7.362-10.134-15.392-3.003-24.67 1.306-1.697.83-3.833-1.697-4.055-8.2-.72-15.79-3.716-23.54-6.064-14.325-4.336-27.93-10.26-40.91-17.825-6.398-3.73-10.916-10.31-18.705-11.88-2.88-.58-5.61-1.894-8.407-2.875-1.28-.846-2.3-2.134-3.97-2.303-9.564-5.884-15.62-13.39-21.773-23.943-1.92-3.296-3.074-15.297-.863-18.08 4.45-5.6 9.754-6.378 15.797-6.856.745.89 1.56.44 2.366.12 12.06 1.605 23.887 2.266 33.286-7.72 1.002-1.067 2.307-2.026 3.66-2.555 3.796-1.482 4.544-4.356 4.42-8.01-.134-3.822-.07-7.68 1.12-11.386 1.484-4.61 3.54-5.148 8.234-4.52 10.58 1.412 21.45 5.847 31.59-1.725.924-.69 1.944-1.373 3.027-1.71 6.665-2.08 9.15-7.515 11.524-13.397 5.086-12.6 9.928-25.31 16.244-37.4 6.22-11.9 19.127-12.248 24.33-2.278.484.93 1.05 2.167 3.166 1.865.895-5.106 1.79-10.41 2.76-15.702 1.042-5.687.813-11.51 3.08-17.088 5.514-13.577 17.57-17.74 29.79-9.676 3.025 2 5.88 4.44 8.29 7.14 2.924 3.277 4.552 2.494 6.912-.65 3.286-4.37 6.924-8.534 10.807-12.39 3.627-3.6 7.472-6.814 13.282-6.96 8.87-.23 15.307 3.75 20.36 10.426 6.7 8.856 9.88 19.43 13.91 29.577 2.087 5.26 4.13 10.534 6.23 15.89 2.53-1.294 3.09-3.173 4.26-4.533 2.817-3.28 5.642-6.273 10.51-6.766 6.97-.704 12.77 6.28 14.78 12.627 2.768 8.733 4.51 17.7 5.71 26.77 1.617 12.21 7.34 21.04 19.59 25.012 5.5 1.783 10.85 4.086 16.157 6.42 11.22 4.93 22.36 10.033 33.53 15.066.76.63 1.294 1.636 2.51 1.51 5.134 3.97 11.14 6.804 15.483 11.82 3.15 3.64 3.65 8.14 1.07 12.474zm-386.62-1.814c-3.244-1.315-4.07 1.572-4.77 3.334-.814 2.047-.795 4.61 2.368 5.31l.987.984c.068 5.11 3.303 8.2 7.56 9.39 7.814 2.19 15.664 4.84 23.94 4.45 4.23-.2 5.15 1.94 4.256 5.19-2.086 7.6 1.955 11.53 7.77 15.238 19.337 12.323 40.37 20.445 62.55 25.685 18.795 4.44 37.56 4.508 56.242-1.19 13.705-4.18 26.548-10.38 39.627-16.045 7.06-3.06 14.195-5.87 21.998-6.14 6.966-.24 11.486 3.6 14.735 9.36 3.098 5.496 2.088 10.7-1.463 15.425-5.355 7.122-12.324 12.48-20.258 16.38-20.99 10.305-43.35 13.5-66.47 11.833-9.71-.7-19.08-2.952-27.46-8.273-1.87-1.19-3.71-3.66-6.09-1.46-2.13 1.956-1.4 4.64-.46 7.03 2.73 7 8.17 12.096 14.22 15.56 8.76 5.017 18.44 8.23 28.56 10.097 19.87 3.662 39.8 2.907 59.78 1.81 3.3-.18 4.89-1.427 5.53-4.975 2.8-15.61 10.85-28.028 23.52-37.58 10.05-7.584 19.64-15.725 28.02-25.192 14.11-15.94 26.22-33.03 31.342-54.17 1.103-4.55.325-5.51-4.085-5.314-19.97.89-39.94 1.853-59.92 2.48-3.9.125-5.86 1.36-6.596 5.09-1.294 6.565-3.762 12.72-6.59 18.768-5.697 12.18-18.157 19.64-31.352 17.24-26.448-4.818-46.32-17.81-53.235-45.64-.54-2.17-1.775-3.43-4.044-3.835-2.25-.4-3.213.92-4.395 2.47-3.507 4.6-6.97 9.203-11.43 13.04-13.74 11.813-30.106 13.7-47.277 13.367-11.72-.227-25.78-12.27-26.98-24.07-.263-2.566-.317-5.68-2.8-7.763-3.2 1.36-5.93 3.16-8.373 5.41-5.704 5.253-11.81 9.09-20.16 6.967-1.506-.383-3.374-1.79-5.083-.13-4.568-.747-9.138-1.58-13.728-.124zm248.113-70.786c4.5-1.442 8.98-3.564 11.496-7.374 2.056-3.112-2.023-6.24-2.546-9.604-.152-.98-.4-1.96-.7-2.9-.965-3.03-2.824-3.5-5.273-1.65-2.235 1.68-4.377 3.49-6.56 5.24-1.847-.15-3.536.143-5.307.9-9.88 4.215-20.315 6.266-30.942 7.35-17.33 1.766-34.55.586-51.7-2.16-2.853-.46-5.256-.22-6.02 3.38-.668 3.14-2.618 5.69-4.626 8.143-.775-2.54-1.676-5.054-2.3-7.633-1.61-6.652-2.867-13.457-6.66-19.3-2.74-4.22-5.605-4.087-8.294.035-8.023 12.297-11.362 26.685-17.67 39.76-2.49 5.165-4.806 10.16-9.962 13.24-1.686 1.007-3.028 2.492-3.494 4.566.996 1.628 2.565 1.386 4.017 1.535 8.59.886 17.18 1.814 25.78 2.7 14.55 1.494 28.88 4.505 43.46 5.914 11.74 1.134 23.36 3.56 35.092 4.732 10.594 1.06 20.946 4.59 31.61 4.04 21.94-1.123 43.84-2.93 65.76-4.39 2.427-.163 4.02-1.134 3.68-3.6-.927-6.748-1.507-13.425-6.998-18.8-5.207-5.094-8.853-11.32-9.877-19.023-1.39-10.466-3.3-20.86-6.945-30.886-.794-2.184-2.098-3.227-3.725-4.07-1.826-.945-2.993.6-4.216 1.784-5.21 5.036-6.914 12.01-10.195 18.114-2.11 3.93-1.614 6.096 2.894 7.906 6.975 2.8 7.757 7.323 2.953 13.323-3.348 4.18-7.234 7.78-11.633 10.86-14.3 10.014-30.733 13.48-47.62 14.59-19.46 1.28-38.984.78-58.344-1.933-8.217-1.154-16.537-2.5-23.96-6.57-3.873-2.124-8.67-4.35-8.19-9.64.462-5.12 4.664-7.545 9.32-9.325 4.132-1.58 8.726-.216 12.65-2.463.87.9 2 1.124 3.18 1.24 11.43 1.126 22.786 2.86 34.25 3.81 16.26 1.342 32.275.447 48.067-3.57 6.898-1.757 13.747-3.837 19.544-8.288zm97.576 47.09c-9.524-5.442-19.92-8.73-29.9-12.786-1.68 2.04-.956 3.6-.59 5.21 1.227 5.36 2.216 10.83 1.917 16.297-.848 15.473-4.774 30.16-12.194 43.85-12.83 23.664-31.2 42.413-52.2 58.796-9.29 7.245-16.29 15.968-19.78 27.424-3.37 11.063-1.66 13.12 9.88 11.06 4.88 1.508 8.56.27 11.57-4.122 2.52-3.68 5.69-6.93 8.73-10.233 23.2-25.23 48.78-48.035 73.41-71.82 13.73-13.262 28.1-25.882 40.45-40.533 2.392-2.84 2.392-4.85-.567-7.004-9.46-6.883-19.623-12.41-30.737-16.13zM214.248 347.054c4.568.707 8.78-1.428 13.31-1.502 13.844-.226 27.15-3.117 39.7-9.184 8.014-3.875 15.656-8.2 21.072-15.58 2.286-3.116 2.27-6.038-.248-9.074-3.618-4.362-7.98-5.212-15.905-2.03-11.26 4.522-22.303 9.576-33.56 14.1-10.548 4.238-21.144 8.32-32.64 9.553-5.472.587-10.923 1.05-16.414 1.294-2.188.1-4.654.93-5.018 3.32-.372 2.44 2.19 2.93 3.968 3.79 8.137 3.96 17.008 4.3 25.735 5.32zm47.807-96.477c-9.555-2.79-18.498-2.852-27.29-3.81-2.283-.25-3.803 1.145-2.16 3.872 1.95 3.24 3.643 6.64 6.51 9.23 6.108 5.52 13.128 8.14 22.058 7.33-3.4-5.89-3.918-11.12.882-16.63zm-116.402-16.88c-.004.034-.008.07-.01.103-1.653-.17-3.306-.324-4.956-.508-1.14-.127-2.366-.534-3.172.68-.847 1.275-.428 2.528.253 3.74 4.568 8.128 11.55 12.51 20.772 13.494 2.286.244 3.703-.998 2.397-2.74-2.453-3.268-1.48-6.38-.135-9.234 1.416-3.004.623-3.865-2.277-4.14-4.296-.41-8.582-.926-12.872-1.397zm127.102 30.732c5.002-2.02 7.106-5.93 5.583-10.74-.826-2.61-2.54-3.12-5.495-2.14 1.405 4.47.718 8.73-.088 12.87zm-99.36-16.03c2.17-2.6 3.983-5.13 3.717-8.28-.136-1.61-1.26-3.57-4.62-2.39 2.867 3.25-2.625 6.685.902 10.66z"/><path fill="#FD611D" d="M425.605 230.613c-11.172-5.033-22.313-10.137-33.53-15.068-5.303-2.33-10.654-4.635-16.156-6.42-12.26-3.972-17.98-12.802-19.59-25.01-1.21-9.07-2.95-18.037-5.72-26.77-2.01-6.344-7.81-13.33-14.78-12.624-4.87.5-7.697 3.49-10.516 6.77-1.17 1.36-1.728 3.24-4.26 4.53-2.098-5.35-4.14-10.63-6.23-15.89-4.03-10.14-7.208-20.72-13.908-29.57-5.054-6.676-11.493-10.653-20.36-10.426-5.81.15-9.657 3.36-13.284 6.96-3.883 3.857-7.52 8.02-10.808 12.394-2.36 3.14-3.99 3.925-6.913.65-2.41-2.702-5.26-5.143-8.29-7.14-12.22-8.064-24.27-3.9-29.79 9.676-2.262 5.58-2.033 11.4-3.08 17.085-.97 5.29-1.86 10.594-2.754 15.702-2.12.3-2.683-.934-3.168-1.865-5.2-9.97-18.11-9.623-24.327 2.277-6.314 12.087-11.16 24.796-16.24 37.397-2.374 5.884-4.86 11.318-11.52 13.397-1.086.34-2.105 1.02-3.03 1.71-10.14 7.574-21.012 3.14-31.59 1.726-4.692-.627-6.75-.09-8.234 4.52-1.193 3.707-1.254 7.564-1.122 11.385.128 3.656-.62 6.53-4.42 8.01-1.35.53-2.66 1.49-3.66 2.557-9.4 9.986-21.227 9.325-33.284 7.722.08-1.497.293-3 .21-4.486-1.062-18.99 3.188-37.26 8.79-55.054 3.733-11.85 9.308-23.142 15.704-34.027 14.315-24.36 33.293-44.09 56.76-59.576 11.59-7.65 23.92-13.86 37.11-18.503 7.034-2.48 14.08-4.54 21.352-6.15 7.914-1.75 15.79-3.99 23.865-4.345 23.608-1.05 46.91-.003 69.797 7.49 11.68 3.827 22.872 8.425 33.764 13.87 10.1 5.05 19.248 11.66 28.03 18.754 19.11 15.422 34.29 34.025 45.58 55.842 6.17 11.928 10.88 24.295 14.46 37.3 3.2 11.64 5.037 23.237 5.14 35.21z"/><path fill="#E2B371" d="M71.778 254.728c1.71-1.662 3.576-.254 5.082.13 8.35 2.12 14.457-1.715 20.16-6.967 2.442-2.24 5.174-4.05 8.373-5.4 2.483 2.088 2.537 5.2 2.8 7.766 1.202 11.8 15.26 23.843 26.978 24.07 17.18.33 33.54-1.554 47.28-13.37 4.46-3.835 7.93-8.44 11.43-13.036 1.19-1.55 2.15-2.87 4.4-2.47 2.27.403 3.506 1.663 4.045 3.832 6.916 27.833 26.787 40.824 53.235 45.64 13.194 2.404 25.655-5.06 31.35-17.24 2.83-6.05 5.3-12.202 6.593-18.763.737-3.73 2.695-4.97 6.595-5.09 19.98-.63 39.95-1.596 59.92-2.49 4.41-.2 5.19.767 4.086 5.315-5.13 21.138-17.23 38.23-31.347 54.17-8.384 9.467-17.965 17.607-28.02 25.19-12.667 9.553-20.724 21.97-23.52 37.582-.638 3.548-2.227 4.792-5.53 4.973-19.983 1.094-39.915 1.85-59.786-1.814-10.12-1.865-19.8-5.08-28.56-10.097-6.05-3.47-11.485-8.56-14.22-15.56-.934-2.39-1.66-5.078.46-7.03 2.388-2.2 4.22.27 6.09 1.46 8.385 5.32 17.75 7.57 27.464 8.27 23.122 1.665 45.48-1.53 66.465-11.837 7.934-3.897 14.903-9.255 20.26-16.38 3.55-4.723 4.56-9.93 1.46-15.422-3.25-5.76-7.77-9.6-14.735-9.36-7.8.268-14.936 3.08-21.996 6.14-13.08 5.666-25.924 11.868-39.63 16.048-18.682 5.693-37.445 5.63-56.24 1.19-22.182-5.246-43.214-13.368-62.55-25.69-5.816-3.705-9.858-7.637-7.77-15.23.892-3.25-.028-5.39-4.258-5.19-8.273.39-16.124-2.26-23.94-4.448-4.254-1.19-7.49-4.286-7.556-9.386 4.922-3.986 10.777-5.63 16.72-5.983.37-2.17-1.507-2.29-1.578-3.52z"/><path fill="#FD611D" d="M291.666 419.406l-1.8.34c-2.784-1.01-5.636-.962-8.322.087-7.538 2.946-15.607 3.048-23.4 3.667-16.764 1.33-33.418-.06-49.953-3.874-12.44-2.872-24.64-6.263-36.27-11.466-18.92-8.464-36.09-19.62-51.15-33.96-17.5-16.674-31.18-36.087-40.76-58.226-2.833-6.56-6.992-12.93-6.52-20.627 2.8.98 5.53 2.296 8.41 2.877 7.79 1.57 12.307 8.152 18.704 11.88 12.98 7.564 26.586 13.49 40.908 17.827 7.753 2.35 15.34 5.35 23.54 6.07 2.528.22 3.005 2.36 1.7 4.06-7.13 9.278-2.88 17.31 3.006 24.67 8.956 11.2 21.355 17.24 34.9 20.83 28.806 7.63 58.257 7.28 87.717 6.52 4.823-.122 9.662-.313 14.48-.09 4.01.188 7.07-1.042 9.55-4.192 17.974-22.823 39.646-42.07 60.405-62.186 14.916-14.45 30.146-28.577 45.23-42.842.114 8.476-3.384 16.17-5.956 23.88-4.21 12.62-10.197 24.595-17.555 35.76-13.28 20.154-29.593 37.394-49.47 51.188-13.928 9.663-28.9 17.103-44.98 22.562-4.16 1.412-8.92 2.02-12.405 5.26z"/><path fill="#E2B371" d="M201.12 190.626c-3.923 2.248-8.517.884-12.65 2.465-4.656 1.78-8.857 4.21-9.32 9.33-.48 5.29 4.318 7.52 8.19 9.64 7.424 4.078 15.744 5.42 23.962 6.57 19.36 2.718 38.882 3.22 58.346 1.938 16.888-1.112 33.32-4.576 47.624-14.592 4.4-3.08 8.285-6.68 11.633-10.86 4.804-6 4.022-10.524-2.954-13.324-4.5-1.81-5-3.974-2.89-7.905 3.28-6.104 4.99-13.077 10.2-18.114 1.225-1.183 2.39-2.73 4.22-1.783 1.628.84 2.93 1.884 3.725 4.065 3.646 10.025 5.554 20.42 6.945 30.886 1.023 7.7 4.67 13.93 9.875 19.025 5.49 5.376 6.07 12.05 6.998 18.8.34 2.467-1.252 3.44-3.68 3.6-21.92 1.463-43.82 3.27-65.76 4.393-10.663.547-21.015-2.983-31.61-4.043-11.74-1.175-23.354-3.6-35.096-4.734-14.58-1.41-28.914-4.42-43.465-5.914-8.594-.88-17.185-1.81-25.78-2.693-1.452-.15-3.02.093-4.017-1.532.466-2.07 1.808-3.556 3.494-4.563 5.16-3.08 7.47-8.076 9.96-13.24 6.31-13.075 9.65-27.462 17.67-39.76 2.69-4.122 5.56-4.254 8.295-.036 3.793 5.844 5.05 12.65 6.66 19.3.624 2.58 1.525 5.09 2.302 7.613-.955 1.817-1.91 3.655-2.867 5.493z"/><path fill="#006EB6" d="M300.87 380.75c-11.542 2.057-13.248.002-9.88-11.063 3.49-11.456 10.492-20.178 19.78-27.424 21.003-16.383 39.372-35.132 52.198-58.796 7.42-13.69 11.347-28.377 12.194-43.85.3-5.464-.69-10.934-1.917-16.295-.367-1.602-1.09-3.167.59-5.2 9.98 4.054 20.376 7.343 29.9 12.787-1.408 5.44-1.738 11.07-2.994 16.57-3.34 14.664-9.34 28.17-18.2 40.16-13.92 18.84-31.83 33.82-49.4 49.09-7.52 6.54-15.42 12.65-22.24 19.975-6.3 6.775-10.82 14.3-10.02 24.036z"/><path fill="#00BBE8" d="M300.87 380.75c-.79-9.736 3.724-17.26 10.028-24.036 6.815-7.324 14.72-13.437 22.24-19.976 17.564-15.27 35.483-30.25 49.403-49.093 8.86-11.984 14.86-25.49 18.2-40.158 1.26-5.502 1.59-11.13 3-16.578 11.12 3.72 21.28 9.24 30.74 16.12 2.96 2.15 2.96 4.16.567 7-12.353 14.65-26.725 27.27-40.455 40.53-24.623 23.785-50.203 46.59-73.41 71.82-3.036 3.303-6.213 6.555-8.733 10.235-3.007 4.393-6.684 5.63-11.57 4.125zm-99.75-190.124c.955-1.838 1.91-3.676 2.865-5.493 2.006-2.432 3.955-4.982 4.623-8.124.765-3.61 3.17-3.84 6.02-3.38 17.15 2.74 34.372 3.92 51.7 2.16 10.628-1.09 21.063-3.14 30.943-7.35 1.78-.76 3.46-1.06 5.31-.91-.22 5.74 1.67 11.01 3.59 16.28-5.796 4.45-12.644 6.53-19.543 8.283-15.79 4.02-31.81 4.914-48.07 3.57-11.462-.947-22.816-2.683-34.246-3.81-1.18-.115-2.31-.34-3.18-1.237z"/><path fill="#FEFDFD" d="M214.248 347.053c-8.727-1.02-17.597-1.36-25.734-5.32-1.778-.864-4.34-1.347-3.968-3.787.363-2.386 2.83-3.22 5.018-3.317 5.49-.25 10.942-.71 16.414-1.3 11.495-1.238 22.092-5.32 32.64-9.558 11.257-4.524 22.302-9.578 33.56-14.1 7.923-3.18 12.286-2.333 15.905 2.03 2.518 3.036 2.535 5.96.248 9.073-5.41 7.38-13.05 11.706-21.07 15.58-12.55 6.07-25.85 8.96-39.7 9.186-4.53.075-8.74 2.21-13.31 1.503z"/><path fill="#FEB493" d="M425.605 230.613c-.102-11.973-1.94-23.572-5.14-35.21-3.578-13.007-8.29-25.374-14.46-37.3-11.29-21.818-26.468-40.42-45.574-55.844-8.78-7.1-17.93-13.71-28.03-18.76-10.89-5.45-22.08-10.05-33.76-13.87-22.88-7.5-46.19-8.54-69.79-7.49-8.074.36-15.95 2.593-23.866 4.343-7.274 1.61-14.32 3.667-21.356 6.147-13.185 4.646-25.516 10.855-37.11 18.505-23.463 15.484-42.44 35.213-56.757 59.573-6.396 10.885-11.97 22.18-15.702 34.03-5.603 17.79-9.852 36.066-8.79 55.052.083 1.484-.13 2.987-.21 4.483-.81.32-1.625.767-2.37-.12.436-9.803-.074-19.766 1.55-29.368 2.005-11.86 4.657-23.77 9.205-34.99 5.63-13.896 12.11-27.35 20.706-39.81 11.225-16.275 24.363-30.607 39.863-42.81 12.967-10.213 27.074-18.754 42.42-24.574 17.03-6.46 34.66-10.843 53.055-12.51 13.547-1.226 26.84-.746 40.255.45 7.96.713 15.553 2.85 23.2 4.94 6.366 1.74 12.7 3.44 18.867 5.897 10.124 4.027 19.885 8.73 29.13 14.454 14.88 9.22 28.45 20.09 40.135 33.166 12.958 14.497 23.76 30.387 31.777 48.233 3.787 8.42 7.2 16.956 9.51 25.792 3.33 12.77 7.017 25.6 5.764 39.096-1.215.124-1.75-.88-2.51-1.51zm-352.12 64.735c-.477 7.698 3.682 14.068 6.52 20.627 9.576 22.14 23.256 41.552 40.763 58.227 15.055 14.34 32.232 25.495 51.152 33.96 11.63 5.202 23.823 8.593 36.27 11.465 16.537 3.815 33.19 5.204 49.953 3.874 7.794-.61 15.863-.72 23.4-3.66 2.688-1.05 5.54-1.093 8.324-.083-2.552 2.32-5.613 2.96-8.987 3.493-14.046 2.22-28.173 1.91-42.307 2.2-10.23.21-20.455-.624-30.237-2.75-13.97-3.033-27.62-7.73-40.678-13.84-18.487-8.65-35.066-20.234-49.604-34.365-14.16-13.763-25.852-29.577-34.927-47.307-5.043-9.85-9.044-20.08-13.07-30.33-.466-1.19-1.268-2.41-.546-3.804 1.68.17 2.7 1.46 3.98 2.305zm218.18 124.058c3.485-3.238 8.246-3.848 12.404-5.26 16.08-5.46 31.05-12.898 44.98-22.56 19.87-13.795 36.19-31.035 49.47-51.186 7.35-11.168 13.34-23.142 17.55-35.76 2.57-7.713 6.07-15.406 5.95-23.88.97-1.245.804-3.56 3.237-3.4 1.273 4.898-1.42 9.28-2.36 13.748-1.68 7.96-4.624 15.762-7.93 23.237-3.452 7.81-7.703 15.305-12.04 22.682-13.414 22.813-31.454 41.368-53.06 56.508-14.113 9.89-29.29 17.93-45.66 23.176-3.83 1.23-7.727 5.14-12.548 2.7z"/><path fill="#FEFDFD" d="M262.055 250.576c-4.8 5.505-4.28 10.738-.88 16.62-8.932.813-15.95-1.81-22.06-7.328-2.866-2.59-4.56-5.99-6.51-9.23-1.642-2.728-.122-4.123 2.16-3.874 8.79.96 17.734 1.024 27.29 3.812zm-116.402-16.88c4.29.47 8.576.984 12.872 1.394 2.9.277 3.692 1.138 2.277 4.14-1.345 2.855-2.317 5.967.135 9.236 1.307 1.74-.11 2.982-2.397 2.74-9.222-.983-16.205-5.366-20.772-13.494-.68-1.213-1.1-2.465-.253-3.742.805-1.213 2.03-.806 3.172-.68 1.65.185 3.303.34 4.955.508l.01-.103z"/><path fill="#006EB6" d="M306.16 183.817c-1.92-5.268-3.802-10.543-3.583-16.28 2.183-1.754 4.325-3.562 6.56-5.247 2.45-1.846 4.308-1.373 5.272 1.65.3.945.54 1.92.7 2.9.52 3.362 4.6 6.49 2.54 9.603-2.52 3.81-7 5.932-11.5 7.374z"/><path fill="#FEFDFD" d="M71.778 254.728c.07 1.23 1.948 1.352 1.575 3.52-5.942.353-11.798 1.998-16.72 5.983l-.987-.98c-1.015-3.38.113-6.17 2.402-8.64 4.59-1.452 9.16-.62 13.73.128zm200.977 9.7c.806-4.14 1.493-8.402.088-12.876 2.954-.977 4.67-.475 5.495 2.136 1.523 4.817-.58 8.724-5.583 10.74zm-99.36-16.028c-3.528-3.976 1.964-7.412-.904-10.662 3.36-1.183 4.49.78 4.63 2.388.268 3.15-1.544 5.674-3.72 8.273z"/><path fill="#E2B371" d="M58.048 254.603c-2.288 2.47-3.417 5.26-2.402 8.645-3.165-.702-3.183-3.264-2.37-5.31.7-1.763 1.527-4.65 4.772-3.335z"/></svg>